<?xml version="1.0" encoding="UTF-8" standalone="no"?><svg xmlns="http://www.w3.org/2000/svg" xmlns:xlink="http://www.w3.org/1999/xlink" contentScriptType="application/ecmascript" contentStyleType="text/css" height="720px" preserveAspectRatio="none" style="width:1081px;height:720px;" version="1.1" viewBox="0 0 1081 720" width="1081px" zoomAndPan="magnify"><defs><filter height="300%" id="fu493n0uhdkfl" width="300%" x="-1" y="-1"><feGaussianBlur result="blurOut" stdDeviation="2.0"/><feColorMatrix in="blurOut" result="blurOut2" type="matrix" values="0 0 0 0 0 0 0 0 0 0 0 0 0 0 0 0 0 0 .4 0"/><feOffset dx="4.0" dy="4.0" in="blurOut2" result="blurOut3"/><feBlend in="SourceGraphic" in2="blurOut3" mode="normal"/></filter></defs><g><!--MD5=[74b0ff4011e3a902ffdd943a9de9aad8]
class Rota--><rect fill="#FEFECE" filter="url(#fu493n0uhdkfl)" height="73.6094" id="Rota" style="stroke: #A80036; stroke-width: 1.5;" width="118" x="411" y="636"/><ellipse cx="453" cy="652" fill="#ADD1B2" rx="11" ry="11" style="stroke: #A80036; stroke-width: 1.0;"/><path d="M455.3438,647.6719 C454.4063,647.2344 453.8125,647.0938 452.9375,647.0938 C450.3125,647.0938 448.3125,649.1719 448.3125,651.8906 L448.3125,653.0156 C448.3125,655.5938 450.4219,657.4844 453.3125,657.4844 C454.5313,657.4844 455.6875,657.1875 456.4375,656.6406 C457.0156,656.2344 457.3438,655.7813 457.3438,655.3906 C457.3438,654.9375 456.9531,654.5469 456.4844,654.5469 C456.2656,654.5469 456.0625,654.625 455.875,654.8125 C455.4219,655.2969 455.4219,655.2969 455.2344,655.3906 C454.8125,655.6563 454.125,655.7813 453.3594,655.7813 C451.3125,655.7813 450.0156,654.6875 450.0156,652.9844 L450.0156,651.8906 C450.0156,650.1094 451.2656,648.7969 453,648.7969 C453.5781,648.7969 454.1875,648.9531 454.6563,649.2031 C455.1406,649.4844 455.3125,649.7031 455.4063,650.1094 C455.4688,650.5156 455.5,650.6406 455.6406,650.7656 C455.7813,650.9063 456.0156,651.0156 456.2344,651.0156 C456.5,651.0156 456.7656,650.875 456.9375,650.6563 C457.0469,650.5 457.0781,650.3125 457.0781,649.8906 L457.0781,648.4688 C457.0781,648.0313 457.0625,647.9063 456.9688,647.75 C456.8125,647.4844 456.5313,647.3438 456.2344,647.3438 C455.9375,647.3438 455.7344,647.4375 455.5156,647.75 L455.3438,647.6719 Z "/><text fill="#000000" font-family="sans-serif" font-size="12" lengthAdjust="spacingAndGlyphs" textLength="26" x="473" y="656.1543">Rota</text><line style="stroke: #A80036; stroke-width: 1.5;" x1="412" x2="528" y1="668" y2="668"/><text fill="#000000" font-family="sans-serif" font-size="11" lengthAdjust="spacingAndGlyphs" textLength="92" x="417" y="682.2104">String endereço</text><text fill="#000000" font-family="sans-serif" font-size="11" lengthAdjust="spacingAndGlyphs" textLength="106" x="417" y="695.0151">Object parâmetros</text><line style="stroke: #A80036; stroke-width: 1.5;" x1="412" x2="528" y1="701.6094" y2="701.6094"/><!--MD5=[a010c50c54cc8c94481958c13245650c]
class Página--><rect fill="#FEFECE" filter="url(#fu493n0uhdkfl)" height="48" id="Página" style="stroke: #A80036; stroke-width: 1.5;" width="70" x="435" y="504.5"/><ellipse cx="450" cy="520.5" fill="#ADD1B2" rx="11" ry="11" style="stroke: #A80036; stroke-width: 1.0;"/><path d="M452.3438,516.1719 C451.4063,515.7344 450.8125,515.5938 449.9375,515.5938 C447.3125,515.5938 445.3125,517.6719 445.3125,520.3906 L445.3125,521.5156 C445.3125,524.0938 447.4219,525.9844 450.3125,525.9844 C451.5313,525.9844 452.6875,525.6875 453.4375,525.1406 C454.0156,524.7344 454.3438,524.2813 454.3438,523.8906 C454.3438,523.4375 453.9531,523.0469 453.4844,523.0469 C453.2656,523.0469 453.0625,523.125 452.875,523.3125 C452.4219,523.7969 452.4219,523.7969 452.2344,523.8906 C451.8125,524.1563 451.125,524.2813 450.3594,524.2813 C448.3125,524.2813 447.0156,523.1875 447.0156,521.4844 L447.0156,520.3906 C447.0156,518.6094 448.2656,517.2969 450,517.2969 C450.5781,517.2969 451.1875,517.4531 451.6563,517.7031 C452.1406,517.9844 452.3125,518.2031 452.4063,518.6094 C452.4688,519.0156 452.5,519.1406 452.6406,519.2656 C452.7813,519.4063 453.0156,519.5156 453.2344,519.5156 C453.5,519.5156 453.7656,519.375 453.9375,519.1563 C454.0469,519 454.0781,518.8125 454.0781,518.3906 L454.0781,516.9688 C454.0781,516.5313 454.0625,516.4063 453.9688,516.25 C453.8125,515.9844 453.5313,515.8438 453.2344,515.8438 C452.9375,515.8438 452.7344,515.9375 452.5156,516.25 L452.3438,516.1719 Z "/><text fill="#000000" font-family="sans-serif" font-size="12" lengthAdjust="spacingAndGlyphs" textLength="38" x="464" y="524.6543">Página</text><line style="stroke: #A80036; stroke-width: 1.5;" x1="436" x2="504" y1="536.5" y2="536.5"/><line style="stroke: #A80036; stroke-width: 1.5;" x1="436" x2="504" y1="544.5" y2="544.5"/><!--MD5=[094441e5f1a41fa4d08acce27f7cea49]
class Criação de Checklists--><rect fill="#FEFECE" filter="url(#fu493n0uhdkfl)" height="99.2188" id="Criação de Checklists" style="stroke: #A80036; stroke-width: 1.5;" width="162" x="183" y="322"/><ellipse cx="198" cy="338" fill="#ADD1B2" rx="11" ry="11" style="stroke: #A80036; stroke-width: 1.0;"/><path d="M200.3438,333.6719 C199.4063,333.2344 198.8125,333.0938 197.9375,333.0938 C195.3125,333.0938 193.3125,335.1719 193.3125,337.8906 L193.3125,339.0156 C193.3125,341.5938 195.4219,343.4844 198.3125,343.4844 C199.5313,343.4844 200.6875,343.1875 201.4375,342.6406 C202.0156,342.2344 202.3438,341.7813 202.3438,341.3906 C202.3438,340.9375 201.9531,340.5469 201.4844,340.5469 C201.2656,340.5469 201.0625,340.625 200.875,340.8125 C200.4219,341.2969 200.4219,341.2969 200.2344,341.3906 C199.8125,341.6563 199.125,341.7813 198.3594,341.7813 C196.3125,341.7813 195.0156,340.6875 195.0156,338.9844 L195.0156,337.8906 C195.0156,336.1094 196.2656,334.7969 198,334.7969 C198.5781,334.7969 199.1875,334.9531 199.6563,335.2031 C200.1406,335.4844 200.3125,335.7031 200.4063,336.1094 C200.4688,336.5156 200.5,336.6406 200.6406,336.7656 C200.7813,336.9063 201.0156,337.0156 201.2344,337.0156 C201.5,337.0156 201.7656,336.875 201.9375,336.6563 C202.0469,336.5 202.0781,336.3125 202.0781,335.8906 L202.0781,334.4688 C202.0781,334.0313 202.0625,333.9063 201.9688,333.75 C201.8125,333.4844 201.5313,333.3438 201.2344,333.3438 C200.9375,333.3438 200.7344,333.4375 200.5156,333.75 L200.3438,333.6719 Z "/><text fill="#000000" font-family="sans-serif" font-size="12" lengthAdjust="spacingAndGlyphs" textLength="130" x="212" y="342.1543">Criação de Checklists</text><line style="stroke: #A80036; stroke-width: 1.5;" x1="184" x2="344" y1="354" y2="354"/><line style="stroke: #A80036; stroke-width: 1.5;" x1="184" x2="344" y1="362" y2="362"/><text fill="#000000" font-family="sans-serif" font-size="11" lengthAdjust="spacingAndGlyphs" textLength="118" x="189" y="376.2104">criarCheck(pergunta)</text><text fill="#000000" font-family="sans-serif" font-size="11" lengthAdjust="spacingAndGlyphs" textLength="127" x="189" y="389.0151">editarCheck(pergunta)</text><text fill="#000000" font-family="sans-serif" font-size="11" lengthAdjust="spacingAndGlyphs" textLength="94" x="189" y="401.8198">deletarCheck(id)</text><text fill="#000000" font-family="sans-serif" font-size="11" lengthAdjust="spacingAndGlyphs" textLength="42" x="189" y="414.6245">salvar()</text><!--MD5=[187dbdb2bb35bd70b19fd4f19c18ff15]
class Escolha de Checklists--><rect fill="#FEFECE" filter="url(#fu493n0uhdkfl)" height="60.8047" id="Escolha de Checklists" style="stroke: #A80036; stroke-width: 1.5;" width="179" x="804.5" y="341"/><ellipse cx="826.7" cy="357" fill="#ADD1B2" rx="11" ry="11" style="stroke: #A80036; stroke-width: 1.0;"/><path d="M829.0438,352.6719 C828.1063,352.2344 827.5125,352.0938 826.6375,352.0938 C824.0125,352.0938 822.0125,354.1719 822.0125,356.8906 L822.0125,358.0156 C822.0125,360.5938 824.1219,362.4844 827.0125,362.4844 C828.2313,362.4844 829.3875,362.1875 830.1375,361.6406 C830.7156,361.2344 831.0438,360.7813 831.0438,360.3906 C831.0438,359.9375 830.6531,359.5469 830.1844,359.5469 C829.9656,359.5469 829.7625,359.625 829.575,359.8125 C829.1219,360.2969 829.1219,360.2969 828.9344,360.3906 C828.5125,360.6563 827.825,360.7813 827.0594,360.7813 C825.0125,360.7813 823.7156,359.6875 823.7156,357.9844 L823.7156,356.8906 C823.7156,355.1094 824.9656,353.7969 826.7,353.7969 C827.2781,353.7969 827.8875,353.9531 828.3563,354.2031 C828.8406,354.4844 829.0125,354.7031 829.1063,355.1094 C829.1688,355.5156 829.2,355.6406 829.3406,355.7656 C829.4813,355.9063 829.7156,356.0156 829.9344,356.0156 C830.2,356.0156 830.4656,355.875 830.6375,355.6563 C830.7469,355.5 830.7781,355.3125 830.7781,354.8906 L830.7781,353.4688 C830.7781,353.0313 830.7625,352.9063 830.6688,352.75 C830.5125,352.4844 830.2313,352.3438 829.9344,352.3438 C829.6375,352.3438 829.4344,352.4375 829.2156,352.75 L829.0438,352.6719 Z "/><text fill="#000000" font-family="sans-serif" font-size="12" lengthAdjust="spacingAndGlyphs" textLength="131" x="842.3" y="361.1543">Escolha de Checklists</text><line style="stroke: #A80036; stroke-width: 1.5;" x1="805.5" x2="982.5" y1="373" y2="373"/><line style="stroke: #A80036; stroke-width: 1.5;" x1="805.5" x2="982.5" y1="381" y2="381"/><text fill="#000000" font-family="sans-serif" font-size="11" lengthAdjust="spacingAndGlyphs" textLength="167" x="810.5" y="395.2104">selecionarChecklist(checklist)</text><!--MD5=[ba7162b0f8c4ae4617bb7e9074b0f271]
class Minhas Checklists--><rect fill="#FEFECE" filter="url(#fu493n0uhdkfl)" height="73.6094" id="Minhas Checklists" style="stroke: #A80036; stroke-width: 1.5;" width="179" x="380.5" y="334.5"/><ellipse cx="413.95" cy="350.5" fill="#ADD1B2" rx="11" ry="11" style="stroke: #A80036; stroke-width: 1.0;"/><path d="M416.2938,346.1719 C415.3563,345.7344 414.7625,345.5938 413.8875,345.5938 C411.2625,345.5938 409.2625,347.6719 409.2625,350.3906 L409.2625,351.5156 C409.2625,354.0938 411.3719,355.9844 414.2625,355.9844 C415.4813,355.9844 416.6375,355.6875 417.3875,355.1406 C417.9656,354.7344 418.2938,354.2813 418.2938,353.8906 C418.2938,353.4375 417.9031,353.0469 417.4344,353.0469 C417.2156,353.0469 417.0125,353.125 416.825,353.3125 C416.3719,353.7969 416.3719,353.7969 416.1844,353.8906 C415.7625,354.1563 415.075,354.2813 414.3094,354.2813 C412.2625,354.2813 410.9656,353.1875 410.9656,351.4844 L410.9656,350.3906 C410.9656,348.6094 412.2156,347.2969 413.95,347.2969 C414.5281,347.2969 415.1375,347.4531 415.6063,347.7031 C416.0906,347.9844 416.2625,348.2031 416.3563,348.6094 C416.4188,349.0156 416.45,349.1406 416.5906,349.2656 C416.7313,349.4063 416.9656,349.5156 417.1844,349.5156 C417.45,349.5156 417.7156,349.375 417.8875,349.1563 C417.9969,349 418.0281,348.8125 418.0281,348.3906 L418.0281,346.9688 C418.0281,346.5313 418.0125,346.4063 417.9188,346.25 C417.7625,345.9844 417.4813,345.8438 417.1844,345.8438 C416.8875,345.8438 416.6844,345.9375 416.4656,346.25 L416.2938,346.1719 Z "/><text fill="#000000" font-family="sans-serif" font-size="12" lengthAdjust="spacingAndGlyphs" textLength="106" x="432.05" y="354.6543">Minhas Checklists</text><line style="stroke: #A80036; stroke-width: 1.5;" x1="381.5" x2="558.5" y1="366.5" y2="366.5"/><line style="stroke: #A80036; stroke-width: 1.5;" x1="381.5" x2="558.5" y1="374.5" y2="374.5"/><text fill="#000000" font-family="sans-serif" font-size="11" lengthAdjust="spacingAndGlyphs" textLength="167" x="386.5" y="388.7104">selecionarChecklist(checklist)</text><text fill="#000000" font-family="sans-serif" font-size="11" lengthAdjust="spacingAndGlyphs" textLength="113" x="386.5" y="401.5151">excluirChecklists(id)</text><!--MD5=[922ea0ec4c1f5d08e699547978db1166]
class Visualizar Checklists--><rect fill="#FEFECE" filter="url(#fu493n0uhdkfl)" height="99.2188" id="Visualizar Checklists" style="stroke: #A80036; stroke-width: 1.5;" width="175" x="594.5" y="322"/><ellipse cx="618.95" cy="338" fill="#ADD1B2" rx="11" ry="11" style="stroke: #A80036; stroke-width: 1.0;"/><path d="M621.2938,333.6719 C620.3563,333.2344 619.7625,333.0938 618.8875,333.0938 C616.2625,333.0938 614.2625,335.1719 614.2625,337.8906 L614.2625,339.0156 C614.2625,341.5938 616.3719,343.4844 619.2625,343.4844 C620.4813,343.4844 621.6375,343.1875 622.3875,342.6406 C622.9656,342.2344 623.2938,341.7813 623.2938,341.3906 C623.2938,340.9375 622.9031,340.5469 622.4344,340.5469 C622.2156,340.5469 622.0125,340.625 621.825,340.8125 C621.3719,341.2969 621.3719,341.2969 621.1844,341.3906 C620.7625,341.6563 620.075,341.7813 619.3094,341.7813 C617.2625,341.7813 615.9656,340.6875 615.9656,338.9844 L615.9656,337.8906 C615.9656,336.1094 617.2156,334.7969 618.95,334.7969 C619.5281,334.7969 620.1375,334.9531 620.6063,335.2031 C621.0906,335.4844 621.2625,335.7031 621.3563,336.1094 C621.4188,336.5156 621.45,336.6406 621.5906,336.7656 C621.7313,336.9063 621.9656,337.0156 622.1844,337.0156 C622.45,337.0156 622.7156,336.875 622.8875,336.6563 C622.9969,336.5 623.0281,336.3125 623.0281,335.8906 L623.0281,334.4688 C623.0281,334.0313 623.0125,333.9063 622.9188,333.75 C622.7625,333.4844 622.4813,333.3438 622.1844,333.3438 C621.8875,333.3438 621.6844,333.4375 621.4656,333.75 L621.2938,333.6719 Z "/><text fill="#000000" font-family="sans-serif" font-size="12" lengthAdjust="spacingAndGlyphs" textLength="122" x="635.05" y="342.1543">Visualizar Checklists</text><line style="stroke: #A80036; stroke-width: 1.5;" x1="595.5" x2="768.5" y1="354" y2="354"/><text fill="#000000" font-family="sans-serif" font-size="11" lengthAdjust="spacingAndGlyphs" textLength="146" x="600.5" y="368.2104">Object documentoExibido</text><line style="stroke: #A80036; stroke-width: 1.5;" x1="595.5" x2="768.5" y1="374.8047" y2="374.8047"/><text fill="#000000" font-family="sans-serif" font-size="11" lengthAdjust="spacingAndGlyphs" textLength="163" x="600.5" y="389.0151">responderCheck(id,resposta)</text><text fill="#000000" font-family="sans-serif" font-size="11" lengthAdjust="spacingAndGlyphs" textLength="97" x="600.5" y="401.8198">exportarChecks()</text><text fill="#000000" font-family="sans-serif" font-size="11" lengthAdjust="spacingAndGlyphs" textLength="28" x="600.5" y="414.6245">like()</text><!--MD5=[68db7207226be5d1003a9cd00bf46822]
class Login/Cadastro--><rect fill="#FEFECE" filter="url(#fu493n0uhdkfl)" height="73.6094" id="Login/Cadastro" style="stroke: #A80036; stroke-width: 1.5;" width="142" x="6" y="334.5"/><ellipse cx="30" cy="350.5" fill="#ADD1B2" rx="11" ry="11" style="stroke: #A80036; stroke-width: 1.0;"/><path d="M32.3438,346.1719 C31.4063,345.7344 30.8125,345.5938 29.9375,345.5938 C27.3125,345.5938 25.3125,347.6719 25.3125,350.3906 L25.3125,351.5156 C25.3125,354.0938 27.4219,355.9844 30.3125,355.9844 C31.5313,355.9844 32.6875,355.6875 33.4375,355.1406 C34.0156,354.7344 34.3438,354.2813 34.3438,353.8906 C34.3438,353.4375 33.9531,353.0469 33.4844,353.0469 C33.2656,353.0469 33.0625,353.125 32.875,353.3125 C32.4219,353.7969 32.4219,353.7969 32.2344,353.8906 C31.8125,354.1563 31.125,354.2813 30.3594,354.2813 C28.3125,354.2813 27.0156,353.1875 27.0156,351.4844 L27.0156,350.3906 C27.0156,348.6094 28.2656,347.2969 30,347.2969 C30.5781,347.2969 31.1875,347.4531 31.6563,347.7031 C32.1406,347.9844 32.3125,348.2031 32.4063,348.6094 C32.4688,349.0156 32.5,349.1406 32.6406,349.2656 C32.7813,349.4063 33.0156,349.5156 33.2344,349.5156 C33.5,349.5156 33.7656,349.375 33.9375,349.1563 C34.0469,349 34.0781,348.8125 34.0781,348.3906 L34.0781,346.9688 C34.0781,346.5313 34.0625,346.4063 33.9688,346.25 C33.8125,345.9844 33.5313,345.8438 33.2344,345.8438 C32.9375,345.8438 32.7344,345.9375 32.5156,346.25 L32.3438,346.1719 Z "/><text fill="#000000" font-family="sans-serif" font-size="12" lengthAdjust="spacingAndGlyphs" textLength="90" x="46" y="354.6543">Login/Cadastro</text><line style="stroke: #A80036; stroke-width: 1.5;" x1="7" x2="147" y1="366.5" y2="366.5"/><line style="stroke: #A80036; stroke-width: 1.5;" x1="7" x2="147" y1="374.5" y2="374.5"/><text fill="#000000" font-family="sans-serif" font-size="11" lengthAdjust="spacingAndGlyphs" textLength="130" x="12" y="388.7104">criarConta(login,senha)</text><text fill="#000000" font-family="sans-serif" font-size="11" lengthAdjust="spacingAndGlyphs" textLength="101" x="12" y="401.5151">logar(login,senha)</text><!--MD5=[6d905cd290a88536f8ac2f8b10e52bc3]
class Autenticação--><rect fill="#FEFECE" filter="url(#fu493n0uhdkfl)" height="60.8047" id="Autenticação" style="stroke: #A80036; stroke-width: 1.5;" width="109" x="209.5" y="498"/><ellipse cx="224.5" cy="514" fill="#ADD1B2" rx="11" ry="11" style="stroke: #A80036; stroke-width: 1.0;"/><path d="M226.8438,509.6719 C225.9063,509.2344 225.3125,509.0938 224.4375,509.0938 C221.8125,509.0938 219.8125,511.1719 219.8125,513.8906 L219.8125,515.0156 C219.8125,517.5938 221.9219,519.4844 224.8125,519.4844 C226.0313,519.4844 227.1875,519.1875 227.9375,518.6406 C228.5156,518.2344 228.8438,517.7813 228.8438,517.3906 C228.8438,516.9375 228.4531,516.5469 227.9844,516.5469 C227.7656,516.5469 227.5625,516.625 227.375,516.8125 C226.9219,517.2969 226.9219,517.2969 226.7344,517.3906 C226.3125,517.6563 225.625,517.7813 224.8594,517.7813 C222.8125,517.7813 221.5156,516.6875 221.5156,514.9844 L221.5156,513.8906 C221.5156,512.1094 222.7656,510.7969 224.5,510.7969 C225.0781,510.7969 225.6875,510.9531 226.1563,511.2031 C226.6406,511.4844 226.8125,511.7031 226.9063,512.1094 C226.9688,512.5156 227,512.6406 227.1406,512.7656 C227.2813,512.9063 227.5156,513.0156 227.7344,513.0156 C228,513.0156 228.2656,512.875 228.4375,512.6563 C228.5469,512.5 228.5781,512.3125 228.5781,511.8906 L228.5781,510.4688 C228.5781,510.0313 228.5625,509.9063 228.4688,509.75 C228.3125,509.4844 228.0313,509.3438 227.7344,509.3438 C227.4375,509.3438 227.2344,509.4375 227.0156,509.75 L226.8438,509.6719 Z "/><text fill="#000000" font-family="sans-serif" font-size="12" lengthAdjust="spacingAndGlyphs" textLength="77" x="238.5" y="518.1543">Autenticação</text><line style="stroke: #A80036; stroke-width: 1.5;" x1="210.5" x2="317.5" y1="530" y2="530"/><text fill="#000000" font-family="sans-serif" font-size="11" lengthAdjust="spacingAndGlyphs" textLength="69" x="215.5" y="544.2104">String token</text><line style="stroke: #A80036; stroke-width: 1.5;" x1="210.5" x2="317.5" y1="550.8047" y2="550.8047"/><!--MD5=[1f391336b4bb4eedbe2ccbbfaf96dd9e]
class Busca de Checklists--><rect fill="#FEFECE" filter="url(#fu493n0uhdkfl)" height="60.8047" id="Busca de Checklists" style="stroke: #A80036; stroke-width: 1.5;" width="153" x="817.5" y="498"/><ellipse cx="832.5" cy="514" fill="#ADD1B2" rx="11" ry="11" style="stroke: #A80036; stroke-width: 1.0;"/><path d="M834.8438,509.6719 C833.9063,509.2344 833.3125,509.0938 832.4375,509.0938 C829.8125,509.0938 827.8125,511.1719 827.8125,513.8906 L827.8125,515.0156 C827.8125,517.5938 829.9219,519.4844 832.8125,519.4844 C834.0313,519.4844 835.1875,519.1875 835.9375,518.6406 C836.5156,518.2344 836.8438,517.7813 836.8438,517.3906 C836.8438,516.9375 836.4531,516.5469 835.9844,516.5469 C835.7656,516.5469 835.5625,516.625 835.375,516.8125 C834.9219,517.2969 834.9219,517.2969 834.7344,517.3906 C834.3125,517.6563 833.625,517.7813 832.8594,517.7813 C830.8125,517.7813 829.5156,516.6875 829.5156,514.9844 L829.5156,513.8906 C829.5156,512.1094 830.7656,510.7969 832.5,510.7969 C833.0781,510.7969 833.6875,510.9531 834.1563,511.2031 C834.6406,511.4844 834.8125,511.7031 834.9063,512.1094 C834.9688,512.5156 835,512.6406 835.1406,512.7656 C835.2813,512.9063 835.5156,513.0156 835.7344,513.0156 C836,513.0156 836.2656,512.875 836.4375,512.6563 C836.5469,512.5 836.5781,512.3125 836.5781,511.8906 L836.5781,510.4688 C836.5781,510.0313 836.5625,509.9063 836.4688,509.75 C836.3125,509.4844 836.0313,509.3438 835.7344,509.3438 C835.4375,509.3438 835.2344,509.4375 835.0156,509.75 L834.8438,509.6719 Z "/><text fill="#000000" font-family="sans-serif" font-size="12" lengthAdjust="spacingAndGlyphs" textLength="121" x="846.5" y="518.1543">Busca de Checklists</text><line style="stroke: #A80036; stroke-width: 1.5;" x1="818.5" x2="969.5" y1="530" y2="530"/><line style="stroke: #A80036; stroke-width: 1.5;" x1="818.5" x2="969.5" y1="538" y2="538"/><text fill="#000000" font-family="sans-serif" font-size="11" lengthAdjust="spacingAndGlyphs" textLength="130" x="823.5" y="552.2104">buscar(termoDeBusca)</text><!--MD5=[ac8f0eb6d8263e2b207e53eac1a485d7]
class Check--><rect fill="#FEFECE" filter="url(#fu493n0uhdkfl)" height="73.6094" id="Check" style="stroke: #A80036; stroke-width: 1.5;" width="100" x="510" y="8"/><ellipse cx="538.95" cy="24" fill="#ADD1B2" rx="11" ry="11" style="stroke: #A80036; stroke-width: 1.0;"/><path d="M541.2938,19.6719 C540.3563,19.2344 539.7625,19.0938 538.8875,19.0938 C536.2625,19.0938 534.2625,21.1719 534.2625,23.8906 L534.2625,25.0156 C534.2625,27.5938 536.3719,29.4844 539.2625,29.4844 C540.4813,29.4844 541.6375,29.1875 542.3875,28.6406 C542.9656,28.2344 543.2938,27.7813 543.2938,27.3906 C543.2938,26.9375 542.9031,26.5469 542.4344,26.5469 C542.2156,26.5469 542.0125,26.625 541.825,26.8125 C541.3719,27.2969 541.3719,27.2969 541.1844,27.3906 C540.7625,27.6563 540.075,27.7813 539.3094,27.7813 C537.2625,27.7813 535.9656,26.6875 535.9656,24.9844 L535.9656,23.8906 C535.9656,22.1094 537.2156,20.7969 538.95,20.7969 C539.5281,20.7969 540.1375,20.9531 540.6063,21.2031 C541.0906,21.4844 541.2625,21.7031 541.3563,22.1094 C541.4188,22.5156 541.45,22.6406 541.5906,22.7656 C541.7313,22.9063 541.9656,23.0156 542.1844,23.0156 C542.45,23.0156 542.7156,22.875 542.8875,22.6563 C542.9969,22.5 543.0281,22.3125 543.0281,21.8906 L543.0281,20.4688 C543.0281,20.0313 543.0125,19.9063 542.9188,19.75 C542.7625,19.4844 542.4813,19.3438 542.1844,19.3438 C541.8875,19.3438 541.6844,19.4375 541.4656,19.75 L541.2938,19.6719 Z "/><text fill="#000000" font-family="sans-serif" font-size="12" lengthAdjust="spacingAndGlyphs" textLength="37" x="556.05" y="28.1543">Check</text><line style="stroke: #A80036; stroke-width: 1.5;" x1="511" x2="609" y1="40" y2="40"/><text fill="#000000" font-family="sans-serif" font-size="11" lengthAdjust="spacingAndGlyphs" textLength="88" x="516" y="54.2104">String pergunta</text><text fill="#000000" font-family="sans-serif" font-size="11" lengthAdjust="spacingAndGlyphs" textLength="28" x="516" y="67.0151">Int id</text><line style="stroke: #A80036; stroke-width: 1.5;" x1="511" x2="609" y1="73.6094" y2="73.6094"/><!--MD5=[0c3b512350d460f5340b50da7a0b4194]
class Checklist--><rect fill="#FEFECE" filter="url(#fu493n0uhdkfl)" height="86.4141" id="Checklist" style="stroke: #A80036; stroke-width: 1.5;" width="86" x="517" y="159"/><ellipse cx="532" cy="175" fill="#ADD1B2" rx="11" ry="11" style="stroke: #A80036; stroke-width: 1.0;"/><path d="M534.3438,170.6719 C533.4063,170.2344 532.8125,170.0938 531.9375,170.0938 C529.3125,170.0938 527.3125,172.1719 527.3125,174.8906 L527.3125,176.0156 C527.3125,178.5938 529.4219,180.4844 532.3125,180.4844 C533.5313,180.4844 534.6875,180.1875 535.4375,179.6406 C536.0156,179.2344 536.3438,178.7813 536.3438,178.3906 C536.3438,177.9375 535.9531,177.5469 535.4844,177.5469 C535.2656,177.5469 535.0625,177.625 534.875,177.8125 C534.4219,178.2969 534.4219,178.2969 534.2344,178.3906 C533.8125,178.6563 533.125,178.7813 532.3594,178.7813 C530.3125,178.7813 529.0156,177.6875 529.0156,175.9844 L529.0156,174.8906 C529.0156,173.1094 530.2656,171.7969 532,171.7969 C532.5781,171.7969 533.1875,171.9531 533.6563,172.2031 C534.1406,172.4844 534.3125,172.7031 534.4063,173.1094 C534.4688,173.5156 534.5,173.6406 534.6406,173.7656 C534.7813,173.9063 535.0156,174.0156 535.2344,174.0156 C535.5,174.0156 535.7656,173.875 535.9375,173.6563 C536.0469,173.5 536.0781,173.3125 536.0781,172.8906 L536.0781,171.4688 C536.0781,171.0313 536.0625,170.9063 535.9688,170.75 C535.8125,170.4844 535.5313,170.3438 535.2344,170.3438 C534.9375,170.3438 534.7344,170.4375 534.5156,170.75 L534.3438,170.6719 Z "/><text fill="#000000" font-family="sans-serif" font-size="12" lengthAdjust="spacingAndGlyphs" textLength="54" x="546" y="179.1543">Checklist</text><line style="stroke: #A80036; stroke-width: 1.5;" x1="518" x2="602" y1="191" y2="191"/><text fill="#000000" font-family="sans-serif" font-size="11" lengthAdjust="spacingAndGlyphs" textLength="65" x="523" y="205.2104">String titulo</text><text fill="#000000" font-family="sans-serif" font-size="11" lengthAdjust="spacingAndGlyphs" textLength="66" x="523" y="218.0151">String autor</text><text fill="#000000" font-family="sans-serif" font-size="11" lengthAdjust="spacingAndGlyphs" textLength="44" x="523" y="230.8198">Int likes</text><line style="stroke: #A80036; stroke-width: 1.5;" x1="518" x2="602" y1="237.4141" y2="237.4141"/><!--MD5=[bf6269131028b3a63c633a3b60e87953]
link Página to Rota--><path d="M470,552.712 C470,575.268 470,609.846 470,635.9765 " fill="none" id="Página-Rota" style="stroke: #A80036; stroke-width: 1.0;"/><polygon fill="#000000" points="484,600,487,594,490,600,484,600" style="stroke: #000000; stroke-width: 1.0;"/><text fill="#000000" font-family="sans-serif" font-size="13" lengthAdjust="spacingAndGlyphs" textLength="35" x="471" y="615.0669">exibe</text><text fill="#000000" font-family="sans-serif" font-size="13" lengthAdjust="spacingAndGlyphs" textLength="8" x="461.025" y="572.5249">1</text><text fill="#000000" font-family="sans-serif" font-size="13" lengthAdjust="spacingAndGlyphs" textLength="8" x="461.2625" y="624.8826">1</text><!--MD5=[d6a6e3122834ac6045c423c537dc4327]
link Criação de Checklists to Página--><path d="M328.614,421.118 C359.199,444.13 395.053,471.108 423.002,492.137 " fill="none" id="Criação de Checklists-&gt;Página" style="stroke: #A80036; stroke-width: 1.0;"/><polygon fill="none" points="427.492,486.756,439.265,504.374,419.075,497.943,427.492,486.756" style="stroke: #A80036; stroke-width: 1.0;"/><!--MD5=[c832472162a44a36488a11197a878388]
link Escolha de Checklists to Página--><path d="M831.652,402.043 C817.117,408.571 801.614,415.25 787,421 C696.277,456.694 588.178,491.385 524.534,511.031 " fill="none" id="Escolha de Checklists-&gt;Página" style="stroke: #A80036; stroke-width: 1.0;"/><polygon fill="none" points="526.301,517.81,505.127,516.979,522.198,504.425,526.301,517.81" style="stroke: #A80036; stroke-width: 1.0;"/><!--MD5=[40c47305133ab2bf008d2eb2b7de6a3d]
link Minhas Checklists to Página--><path d="M470,408.841 C470,431.333 470,460.341 470,484.045 " fill="none" id="Minhas Checklists-&gt;Página" style="stroke: #A80036; stroke-width: 1.0;"/><polygon fill="none" points="477,484.372,470,504.372,463,484.372,477,484.372" style="stroke: #A80036; stroke-width: 1.0;"/><!--MD5=[3e9dbbd326ee7e1cacf8de003fcff0bb]
link Visualizar Checklists to Página--><path d="M615.504,421.118 C583.88,444.239 546.782,471.362 517.961,492.435 " fill="none" id="Visualizar Checklists-&gt;Página" style="stroke: #A80036; stroke-width: 1.0;"/><polygon fill="none" points="521.907,498.221,501.63,504.374,513.644,486.919,521.907,498.221" style="stroke: #A80036; stroke-width: 1.0;"/><!--MD5=[743e070b6c104aff15c179c4cd5df68e]
link Login/Cadastro to Página--><path d="M139.32,408.515 C147.839,412.945 156.557,417.231 165,421 C250.357,459.101 353.842,492.73 415.676,511.562 " fill="none" id="Login/Cadastro-&gt;Página" style="stroke: #A80036; stroke-width: 1.0;"/><polygon fill="none" points="417.828,504.9,434.962,517.366,413.794,518.306,417.828,504.9" style="stroke: #A80036; stroke-width: 1.0;"/><!--MD5=[7e23e33a6621481262654ae95c6f2387]
link Login/Cadastro to Autenticação--><path d="M91.7378,408.828 C101.1617,428.401 115.009,451.789 133,468 C154.712,487.563 183.941,501.673 209.28,511.227 " fill="none" id="Login/Cadastro-Autenticação" style="stroke: #A80036; stroke-width: 1.0;"/><text fill="#000000" font-family="sans-serif" font-size="13" lengthAdjust="spacingAndGlyphs" textLength="29" x="134" y="464.0669">gera</text><polygon fill="#000000" points="166,458.0664,172,461.0664,166,464.0664,166,458.0664" style="stroke: #000000; stroke-width: 1.0;"/><text fill="#000000" font-family="sans-serif" font-size="13" lengthAdjust="spacingAndGlyphs" textLength="8" x="85.4491" y="428.0811">1</text><text fill="#000000" font-family="sans-serif" font-size="13" lengthAdjust="spacingAndGlyphs" textLength="8" x="193.3895" y="504.9871">1</text><!--MD5=[41eca47d859dcc6957dcd6cd8b1a3b46]
link Minhas Checklists to Autenticação--><path d="M421.962,408.645 C387.346,434.691 341.016,469.551 307.49,494.777 " fill="none" id="Minhas Checklists-&gt;Autenticação" style="stroke: #A80036; stroke-width: 1.0; stroke-dasharray: 7.0,7.0;"/><polygon fill="#A80036" points="303.467,497.804,313.0633,495.5881,307.462,494.7974,308.2527,489.1961,303.467,497.804" style="stroke: #A80036; stroke-width: 1.0;"/><!--MD5=[4e5e4a4da32afd2dfe4d38a5085fb8bd]
link Criação de Checklists to Autenticação--><path d="M264,421.118 C264,444.198 264,471.267 264,492.324 " fill="none" id="Criação de Checklists-&gt;Autenticação" style="stroke: #A80036; stroke-width: 1.0; stroke-dasharray: 7.0,7.0;"/><polygon fill="#A80036" points="264,497.541,268,488.541,264,492.541,260,488.541,264,497.541" style="stroke: #A80036; stroke-width: 1.0;"/><!--MD5=[ce7a72a81837b04230df4c34456f0b60]
link Escolha de Checklists to Busca de Checklists--><path d="M894,402.019 C894,427.793 894,465.24 894,492.514 " fill="none" id="Escolha de Checklists-&gt;Busca de Checklists" style="stroke: #A80036; stroke-width: 1.0; stroke-dasharray: 7.0,7.0;"/><polygon fill="#A80036" points="894,497.827,898,488.827,894,492.827,890,488.827,894,497.827" style="stroke: #A80036; stroke-width: 1.0;"/><!--MD5=[ab4d3ec74741b74ead73e12bc8c987f4]
link Minhas Checklists to Busca de Checklists--><path d="M547.039,408.539 C557.054,412.893 567.226,417.154 577,421 C655.85,452.023 747.827,482.288 812.334,502.576 " fill="none" id="Minhas Checklists-&gt;Busca de Checklists" style="stroke: #A80036; stroke-width: 1.0; stroke-dasharray: 7.0,7.0;"/><polygon fill="#A80036" points="817.319,504.142,809.9299,497.6304,812.5485,502.6447,807.5342,505.2633,817.319,504.142" style="stroke: #A80036; stroke-width: 1.0;"/><!--MD5=[36c2626c4533f6b30338df2ec1f2546f]
link Check to Checklist--><path d="M560,82.341 C560,105.247 560,134.912 560,158.85 " fill="none" id="Check-Checklist" style="stroke: #A80036; stroke-width: 1.0;"/><text fill="#000000" font-family="sans-serif" font-size="13" lengthAdjust="spacingAndGlyphs" textLength="57" x="561" y="125.0669">pertence</text><polygon fill="#000000" points="585,134.1328,588,140.1328,591,134.1328,585,134.1328" style="stroke: #000000; stroke-width: 1.0;"/><text fill="#000000" font-family="sans-serif" font-size="13" lengthAdjust="spacingAndGlyphs" textLength="23" x="535.1672" y="101.5961">0..*</text><text fill="#000000" font-family="sans-serif" font-size="13" lengthAdjust="spacingAndGlyphs" textLength="8" x="551.3625" y="147.8221">1</text><!--MD5=[73dc249a70464829c3b1e2e56710b312]
link Checklist to Escolha de Checklists--><path d="M603.322,224.726 C662.453,254.38 768.646,307.635 835.002,340.913 " fill="none" id="Checklist-Escolha de Checklists" style="stroke: #A80036; stroke-width: 1.0;"/><polygon fill="#000000" points="746,282.0664,740,285.0664,746,288.0664,746,282.0664" style="stroke: #000000; stroke-width: 1.0;"/><text fill="#000000" font-family="sans-serif" font-size="13" lengthAdjust="spacingAndGlyphs" textLength="35" x="752" y="288.0669">exibe</text><text fill="#000000" font-family="sans-serif" font-size="13" lengthAdjust="spacingAndGlyphs" textLength="23" x="611.0313" y="223.9143">0..*</text><text fill="#000000" font-family="sans-serif" font-size="13" lengthAdjust="spacingAndGlyphs" textLength="23" x="797.4618" y="330.1583">0..*</text><!--MD5=[87a18b78ee0c4104392053fab9ae214b]
link Checklist to Minhas Checklists--><path d="M537.289,245.267 C522.5,272.791 503.414,308.312 489.349,334.49 " fill="none" id="Checklist-Minhas Checklists" style="stroke: #A80036; stroke-width: 1.0;"/><polygon fill="#000000" points="535,286,538,280,541,286,535,286" style="stroke: #000000; stroke-width: 1.0;"/><text fill="#000000" font-family="sans-serif" font-size="13" lengthAdjust="spacingAndGlyphs" textLength="35" x="522" y="301.0669">exibe</text><text fill="#000000" font-family="sans-serif" font-size="13" lengthAdjust="spacingAndGlyphs" textLength="23" x="508.8366" y="265.4025">0..*</text><text fill="#000000" font-family="sans-serif" font-size="13" lengthAdjust="spacingAndGlyphs" textLength="23" x="467.7962" y="323.3986">0..*</text><!--MD5=[0e079002ddbf05be13a884312e356123]
link Checklist to Criação de Checklists--><path d="M516.653,206.752 C465.418,213.143 379.832,230.173 322,275 C306.362,287.122 293.978,304.745 284.737,321.561 " fill="none" id="Checklist-Criação de Checklists" style="stroke: #A80036; stroke-width: 1.0;"/><text fill="#000000" font-family="sans-serif" font-size="13" lengthAdjust="spacingAndGlyphs" textLength="23" x="323" y="288.0669">cria</text><polygon fill="#000000" points="349,282.0664,355,285.0664,349,288.0664,349,282.0664" style="stroke: #000000; stroke-width: 1.0;"/><text fill="#000000" font-family="sans-serif" font-size="13" lengthAdjust="spacingAndGlyphs" textLength="23" x="485.9401" y="203.4127">0..*</text><text fill="#000000" font-family="sans-serif" font-size="13" lengthAdjust="spacingAndGlyphs" textLength="8" x="278.986" y="310.9038">1</text><!--MD5=[0e079002ddbf05be13a884312e356123]
link Checklist to Criação de Checklists--><path d="M516.959,227.356 C472.063,252.761 400.619,293.19 345.091,324.612 " fill="none" id="Checklist-Criação de Checklists-1" style="stroke: #A80036; stroke-width: 1.0;"/><text fill="#000000" font-family="sans-serif" font-size="13" lengthAdjust="spacingAndGlyphs" textLength="32" x="431" y="288.0669">edita</text><polygon fill="#000000" points="466,282.0664,472,285.0664,466,288.0664,466,282.0664" style="stroke: #000000; stroke-width: 1.0;"/><text fill="#000000" font-family="sans-serif" font-size="13" lengthAdjust="spacingAndGlyphs" textLength="23" x="485.9483" y="227.0248">0..*</text><text fill="#000000" font-family="sans-serif" font-size="13" lengthAdjust="spacingAndGlyphs" textLength="23" x="353.048" y="317.0012">0..*</text><!--MD5=[77905a71798c4d35eaddd5a86cdf5727]
link Checklist to Visualizar Checklists--><path d="M590.786,245.267 C607.727,268.527 628.828,297.498 646.467,321.714 " fill="none" id="Checklist-Visualizar Checklists" style="stroke: #A80036; stroke-width: 1.0;"/><polygon fill="#000000" points="639,286,642,280,645,286,639,286" style="stroke: #000000; stroke-width: 1.0;"/><text fill="#000000" font-family="sans-serif" font-size="13" lengthAdjust="spacingAndGlyphs" textLength="35" x="626" y="301.0669">exibe</text><text fill="#000000" font-family="sans-serif" font-size="13" lengthAdjust="spacingAndGlyphs" textLength="8" x="587.055" y="265.4025">1</text><text fill="#000000" font-family="sans-serif" font-size="13" lengthAdjust="spacingAndGlyphs" textLength="23" x="617.1469" y="311.0773">0..*</text><!--MD5=[c893bf94645598d64a3ae66c81edf3d5]
link Busca de Checklists to Checklist--><path d="M937.293,497.926 C960.956,479.02 988.025,452.222 1001,421 C1017.89,380.369 1027.75,356.931 1001,322 C952.177,258.257 704.657,220.898 603.334,208.068 " fill="none" id="Busca de Checklists-Checklist" style="stroke: #A80036; stroke-width: 1.0;"/><polygon fill="#000000" points="1025,370.0664,1019,373.0664,1025,376.0664,1025,370.0664" style="stroke: #000000; stroke-width: 1.0;"/><text fill="#000000" font-family="sans-serif" font-size="13" lengthAdjust="spacingAndGlyphs" textLength="38" x="1031" y="376.0669">busca</text><text fill="#000000" font-family="sans-serif" font-size="13" lengthAdjust="spacingAndGlyphs" textLength="23" x="921.2477" y="486.7001">0..*</text><text fill="#000000" font-family="sans-serif" font-size="13" lengthAdjust="spacingAndGlyphs" textLength="23" x="611.045" y="204.9137">0..*</text><!--MD5=[7bb0606ffa1f514ff3bcf158ab257ddf]
@startuml
Rota : String endereço
Rota : Object parâmetros
Rota "1" -up- "1" Página :exibe >

"Criação de Checklists" - -|> Página
"Escolha de Checklists" - -|> Página
"Minhas Checklists" - -|> Página
"Visualizar Checklists" - -|> Página
"Login/Cadastro" - -|> Página

"Login/Cadastro" : criarConta(login,senha)
"Login/Cadastro" : logar(login,senha)

"Login/Cadastro" "1" - - "1" Autenticação : gera >

Autenticação : String token

"Minhas Checklists" ..> Autenticação
"Criação de Checklists" ..> Autenticação


"Criação de Checklists" : criarCheck(pergunta)
"Criação de Checklists" : editarCheck(pergunta)
"Criação de Checklists" : deletarCheck(id)
"Criação de Checklists" : salvar()

"Escolha de Checklists" : selecionarChecklist(checklist)

"Minhas Checklists" : selecionarChecklist(checklist)
"Minhas Checklists" : excluirChecklists(id)

"Visualizar Checklists" : Object documentoExibido
"Visualizar Checklists" : responderCheck(id,resposta)
"Visualizar Checklists" : exportarChecks()
"Visualizar Checklists" : like()

"Escolha de Checklists" ..> "Busca de Checklists"
"Minhas Checklists" ..> "Busca de Checklists"

"Busca de Checklists" : buscar(termoDeBusca)

Check "0..*" -down- "1" Checklist : pertence >

Check : String pergunta
Check : Int id

"Escolha de Checklists" "0..*" -up- "0..*" Checklist : exibe >
"Minhas Checklists" "0..*" -up- "0..*" Checklist : exibe >
"Criação de Checklists" "1" -up- "0..*" Checklist : cria >
"Criação de Checklists" "0..*" -up- "0..*" Checklist : edita >
"Visualizar Checklists" "0..*" -up- "1" Checklist: exibe >
"Busca de Checklists" "0..*" - - "0..*" Checklist : busca >

Checklist : String titulo
Checklist : String autor
Checklist : Int likes
@enduml

PlantUML version 1.2020.11(Sat May 30 10:13:43 UTC 2020)
(GPL source distribution)
Java Runtime: Java(TM) SE Runtime Environment
JVM: Java HotSpot(TM) 64-Bit Server VM
Default Encoding: UTF-8
Language: en
Country: US
--></g></svg>