<svg xmlns="http://www.w3.org/2000/svg" xmlns:xlink="http://www.w3.org/1999/xlink" xmlns:lucid="lucid" width="880" height="436"><g transform="translate(0 0)" lucid:page-tab-id="0_0"><path d="M740 156h33.9v39.67H740z" fill="none"/><use xlink:href="#a" transform="matrix(1,0,0,1,740,156) translate(12 23.6)"/><path d="M740 260h33.9v20H740z" fill="none"/><use xlink:href="#b" transform="matrix(1,0,0,1,740,260) translate(3.5 14.4)"/><path d="M640 195.67h78.08v44.66H640z" fill="none"/><use xlink:href="#c" transform="matrix(1,0,0,1,640,195.66729385752842) translate(13.524999999999999 26.1)"/><path d="M20 20h260v136H20z" fill="#fff"/><path d="M20 20h260v136H20zM20 60h260" stroke="#000" stroke-width="2" fill="none"/><use xlink:href="#d" transform="matrix(1,0,0,1,30,20) translate(90.07499999999999 23.6)"/><path d="M600 280h260v136H600z" fill="#fff"/><path d="M600 280h260v136H600zM600 320h260" stroke="#000" stroke-width="2" fill="none"/><use xlink:href="#e" transform="matrix(1,0,0,1,610,280) translate(95.025 23.6)"/><path d="M600 20h260v136H600z" fill="#fff"/><path d="M600 20h260v136H600zM600 60h260" stroke="#000" stroke-width="2" fill="none"/><use xlink:href="#f" transform="matrix(1,0,0,1,610,20) translate(84.07499999999999 23.6)"/><path d="M730 278V158" stroke="#000" stroke-width="2" fill="none"/><path d="M731 279h-2v-1.03h2zM731 158.03h-2V157h2z"/><path d="M282 94.38h316" stroke="#000" stroke-width="2" fill="none"/><path d="M282.03 95.38H281v-2h1.03zM599 95.38h-1.03v-2H599z"/><path d="M560 61.9h33.9v20H560z" fill="none"/><use xlink:href="#b" transform="matrix(1,0,0,1,560,61.9096426452586) translate(3.5 14.4)"/><path d="M280 60h35.7v29.5H280z" fill="none"/><use xlink:href="#a" transform="matrix(1,0,0,1,280.0000000000001,60.00000000000003) translate(13 18.6)"/><path d="M407.9 44.83H486V89.5h-78.1z" fill="none"/><use xlink:href="#g" transform="matrix(1,0,0,1,407.9097978134216,44.82948690687698) translate(25.05 26.1)"/><path d="M150 158v202h448" stroke="#000" stroke-width="2" fill="none"/><path d="M151 158.03h-2V157h2zM599 361h-1.03v-2H599z"/><path d="M120 156h26.9v39.67H120z" fill="none"/><use xlink:href="#a" transform="matrix(1,0,0,1,120.00000000000003,156) translate(8.5 23.6)"/><path d="M560 338h33.9v20H560z" fill="none"/><use xlink:href="#b" transform="matrix(1,0,0,1,560,338) translate(3.5 14.4)"/><path d="M258.82 313.33h78.07V358H258.8z" fill="none"/><use xlink:href="#g" transform="matrix(1,0,0,1,258.81548646003023,313.33458771505684) translate(25.05 26.1)"/><defs><path d="M27 0v-27h64v-190l-56 39v-29l58-41h29v221h61V0H27" id="h"/><use transform="matrix(0.05,0,0,0.05,0,0)" xlink:href="#h" id="a"/><path d="M101-251c68 0 85 55 85 127S166 4 100 4C33 4 14-52 14-124c0-73 17-127 87-127zm-1 229c47 0 54-49 54-102s-4-102-53-102c-51 0-55 48-55 102 0 53 5 102 54 102" id="i"/><path d="M33 0v-38h34V0H33" id="j"/><path d="M80-196l47-18 7 23-49 13 32 44-20 13-27-46-27 45-21-12 33-44-49-13 8-23 47 19-2-53h23" id="k"/><g id="b"><use transform="matrix(0.05,0,0,0.05,0,0)" xlink:href="#i"/><use transform="matrix(0.05,0,0,0.05,10,0)" xlink:href="#j"/><use transform="matrix(0.05,0,0,0.05,15,0)" xlink:href="#j"/><use transform="matrix(0.05,0,0,0.05,20,0)" xlink:href="#k"/></g><path d="M115-194c55 1 70 41 70 98S169 2 115 4C84 4 66-9 55-30l1 105H24l-1-265h31l2 30c10-21 28-34 59-34zm-8 174c40 0 45-34 45-75s-6-73-45-74c-42 0-51 32-51 76 0 43 10 73 51 73" id="l"/><path d="M100-194c62-1 85 37 85 99 1 63-27 99-86 99S16-35 15-95c0-66 28-99 85-99zM99-20c44 1 53-31 53-75 0-43-8-75-51-75s-53 32-53 75 10 74 51 75" id="m"/><path d="M135-143c-3-34-86-38-87 0 15 53 115 12 119 90S17 21 10-45l28-5c4 36 97 45 98 0-10-56-113-15-118-90-4-57 82-63 122-42 12 7 21 19 24 35" id="n"/><path d="M84 4C-5 8 30-112 23-190h32v120c0 31 7 50 39 49 72-2 45-101 50-169h31l1 190h-30c-1-10 1-25-2-33-11 22-28 36-60 37" id="o"/><path d="M24-231v-30h32v30H24zM24 0v-190h32V0H24" id="p"/><g id="c"><use transform="matrix(0.05,0,0,0.05,0,0)" xlink:href="#l"/><use transform="matrix(0.05,0,0,0.05,10,0)" xlink:href="#m"/><use transform="matrix(0.05,0,0,0.05,20,0)" xlink:href="#n"/><use transform="matrix(0.05,0,0,0.05,29,0)" xlink:href="#n"/><use transform="matrix(0.05,0,0,0.05,38,0)" xlink:href="#o"/><use transform="matrix(0.05,0,0,0.05,48,0)" xlink:href="#p"/></g><path d="M233-177c-1 41-23 64-60 70L243 0h-38l-65-103H63V0H30v-248c88 3 205-21 203 71zM63-129c60-2 137 13 137-47 0-61-80-42-137-45v92" id="q"/><path d="M100-194c63 0 86 42 84 106H49c0 40 14 67 53 68 26 1 43-12 49-29l28 8c-11 28-37 45-77 45C44 4 14-33 15-96c1-61 26-98 85-98zm52 81c6-60-76-77-97-28-3 7-6 17-6 28h103" id="r"/><path d="M108 0H70L1-190h34L89-25l56-165h34" id="s"/><path d="M114-163C36-179 61-72 57 0H25l-1-190h30c1 12-1 29 2 39 6-27 23-49 58-41v29" id="t"/><g id="d"><use transform="matrix(0.05,0,0,0.05,0,0)" xlink:href="#q"/><use transform="matrix(0.05,0,0,0.05,12.950000000000001,0)" xlink:href="#r"/><use transform="matrix(0.05,0,0,0.05,22.950000000000003,0)" xlink:href="#s"/><use transform="matrix(0.05,0,0,0.05,31.950000000000003,0)" xlink:href="#p"/><use transform="matrix(0.05,0,0,0.05,35.900000000000006,0)" xlink:href="#n"/><use transform="matrix(0.05,0,0,0.05,44.900000000000006,0)" xlink:href="#m"/><use transform="matrix(0.05,0,0,0.05,54.900000000000006,0)" xlink:href="#t"/></g><path d="M212-179c-10-28-35-45-73-45-59 0-87 40-87 99 0 60 29 101 89 101 43 0 62-24 78-52l27 14C228-24 195 4 139 4 59 4 22-46 18-125c-6-104 99-153 187-111 19 9 31 26 39 46" id="u"/><path d="M106-169C34-169 62-67 57 0H25v-261h32l-1 103c12-21 28-36 61-36 89 0 53 116 60 194h-32v-121c2-32-8-49-39-48" id="v"/><path d="M96-169c-40 0-48 33-48 73s9 75 48 75c24 0 41-14 43-38l32 2c-6 37-31 61-74 61-59 0-76-41-82-99-10-93 101-131 147-64 4 7 5 14 7 22l-32 3c-4-21-16-35-41-35" id="w"/><path d="M143 0L79-87 56-68V0H24v-261h32v163l83-92h37l-77 82L181 0h-38" id="x"/><g id="e"><use transform="matrix(0.05,0,0,0.05,0,0)" xlink:href="#u"/><use transform="matrix(0.05,0,0,0.05,12.950000000000001,0)" xlink:href="#v"/><use transform="matrix(0.05,0,0,0.05,22.950000000000003,0)" xlink:href="#r"/><use transform="matrix(0.05,0,0,0.05,32.95,0)" xlink:href="#w"/><use transform="matrix(0.05,0,0,0.05,41.95,0)" xlink:href="#x"/></g><path d="M24 0v-261h32V0H24" id="y"/><path d="M59-47c-2 24 18 29 38 22v24C64 9 27 4 27-40v-127H5v-23h24l9-43h21v43h35v23H59v120" id="z"/><g id="f"><use transform="matrix(0.05,0,0,0.05,0,0)" xlink:href="#u"/><use transform="matrix(0.05,0,0,0.05,12.950000000000001,0)" xlink:href="#v"/><use transform="matrix(0.05,0,0,0.05,22.950000000000003,0)" xlink:href="#r"/><use transform="matrix(0.05,0,0,0.05,32.95,0)" xlink:href="#w"/><use transform="matrix(0.05,0,0,0.05,41.95,0)" xlink:href="#x"/><use transform="matrix(0.05,0,0,0.05,50.95,0)" xlink:href="#y"/><use transform="matrix(0.05,0,0,0.05,54.900000000000006,0)" xlink:href="#p"/><use transform="matrix(0.05,0,0,0.05,58.85,0)" xlink:href="#n"/><use transform="matrix(0.05,0,0,0.05,67.85000000000001,0)" xlink:href="#z"/></g><path d="M141-36C126-15 110 5 73 4 37 3 15-17 15-53c-1-64 63-63 125-63 3-35-9-54-41-54-24 1-41 7-42 31l-33-3c5-37 33-52 76-52 45 0 72 20 72 64v82c-1 20 7 32 28 27v20c-31 9-61-2-59-35zM48-53c0 20 12 33 32 33 41-3 63-29 60-74-43 2-92-5-92 41" id="A"/><g id="g"><use transform="matrix(0.05,0,0,0.05,0,0)" xlink:href="#w"/><use transform="matrix(0.05,0,0,0.05,9,0)" xlink:href="#t"/><use transform="matrix(0.05,0,0,0.05,14.949999999999998,0)" xlink:href="#p"/><use transform="matrix(0.05,0,0,0.05,18.9,0)" xlink:href="#A"/></g></defs></g></svg>