<svg version="1.1" xmlns="http://www.w3.org/2000/svg" xmlns:xlink="http://www.w3.org/1999/xlink" width="1659" height="3963"><defs/><g><g/><g/><g/><g/><g/><g/><g/><g/><g/><g/><g/><g/><g/><g/><g/><g/><g/><g/><g/><g/><g/><g/><g/><g/><g/><g/><g/><g/><g/><g/><g/><g/><g/><g/><g/><g/><g/><g/><g/><g/><g><rect fill="white" stroke="none" x="0" y="0" width="1659" height="3963"/></g><g><text fill="black" stroke="none" font-family="sans-serif" font-size="16.5pt" font-style="normal" font-weight="normal" text-decoration="normal" x="720.1394697018009" y="39.58145414999999" text-anchor="start" dominant-baseline="alphabetic" xml:space="preserve">RevisionHub - Revisor</text></g><g><g><path fill="lightgrey" stroke="black" paint-order="fill stroke markers" d=" M 433.9097947515626 134.57694411 L 762.4797124157111 134.57694411 L 762.4797124157111 3907.613091868501 L 433.9097947515626 3907.613091868501 L 433.9097947515626 134.57694411" stroke-miterlimit="10" stroke-width="2.1989696750000003" stroke-dasharray=""/></g><g><text fill="black" stroke="none" font-family="sans-serif" font-size="11pt" font-style="normal" font-weight="bold" text-decoration="normal" x="565.6249522530704" y="171.51963465" text-anchor="start" dominant-baseline="alphabetic" xml:space="preserve">FrontEnd</text></g><g><path fill="lightblue" stroke="black" paint-order="fill stroke markers" d=" M 940.947097708344 134.57694411 L 1596.8263770352853 134.57694411 L 1596.8263770352853 3907.613091868501 L 940.947097708344 3907.613091868501 L 940.947097708344 134.57694411" stroke-miterlimit="10" stroke-width="2.1989696750000003" stroke-dasharray=""/></g><g><text fill="black" stroke="none" font-family="sans-serif" font-size="11pt" font-style="normal" font-weight="bold" text-decoration="normal" x="1237.5195193542365" y="171.51963465" text-anchor="start" dominant-baseline="alphabetic" xml:space="preserve">BackEnd</text></g></g><g><path fill="none" stroke="black" paint-order="fill stroke markers" d=" M 145.13199855000002 268.7580736785 L 145.13199855000002 3963.027127678501" stroke-miterlimit="10" stroke-width="2.1989696750000003" stroke-dasharray="20.298181615384618,8.795878700000001"/><path fill="none" stroke="black" paint-order="fill stroke markers" d=" M 489.18086087289464 268.7580736785 L 489.18086087289464 3963.027127678501" stroke-miterlimit="10" stroke-width="2.1989696750000003" stroke-dasharray="20.298181615384618,8.795878700000001"/><path fill="none" stroke="black" paint-order="fill stroke markers" d=" M 672.5701498954533 268.7580736785 L 672.5701498954533 3963.027127678501" stroke-miterlimit="10" stroke-width="2.1989696750000003" stroke-dasharray="20.298181615384618,8.795878700000001"/><path fill="none" stroke="black" paint-order="fill stroke markers" d=" M 1025.1515821036019 268.7580736785 L 1025.1515821036019 3963.027127678501" stroke-miterlimit="10" stroke-width="2.1989696750000003" stroke-dasharray="20.298181615384618,8.795878700000001"/><path fill="none" stroke="black" paint-order="fill stroke markers" d=" M 1500.803708741102 268.7580736785 L 1500.803708741102 3963.027127678501" stroke-miterlimit="10" stroke-width="2.1989696750000003" stroke-dasharray="20.298181615384618,8.795878700000001"/></g><g><g><path fill="white" stroke="black" paint-order="fill stroke markers" d=" M 160.17295112700003 157.1383729755001 A 15.040952577 15.040952577 0 1 1 160.17294360652437 157.1233320254299 M 145.13199855000002 172.17932555250007 L 145.13199855000002 204.37224159450008 M 126.13290055800002 183.78988543650007 L 164.13109654200002 183.78988543650007 M 145.13199855000002 204.37224159450008 L 126.13290055800002 234.45414674850008 M 145.13199855000002 204.37224159450008 L 164.13109654200002 234.45414674850008" stroke-miterlimit="10" stroke-width="4.485898137" stroke-dasharray=""/></g><g><g/><text fill="black" stroke="none" font-family="sans-serif" font-size="11pt" font-style="normal" font-weight="normal" text-decoration="normal" x="120.28591395527346" y="260.8417828485001" text-anchor="start" dominant-baseline="alphabetic" xml:space="preserve">Revisor</text></g><path fill="none" stroke="none"/><g><path fill="white" stroke="black" paint-order="fill stroke markers" d=" M 447.1036128015626 197.51145620850005 L 531.2581089442267 197.51145620850005 L 531.2581089442267 268.75807367850007 L 447.1036128015626 268.75807367850007 L 447.1036128015626 197.51145620850005 Z" stroke-miterlimit="10" stroke-width="4.222021776" stroke-dasharray=""/></g><g><g/><text fill="black" stroke="none" font-family="sans-serif" font-size="11pt" font-style="normal" font-weight="normal" text-decoration="normal" x="475.7341979700626" y="242.37043757850003" text-anchor="start" dominant-baseline="alphabetic" xml:space="preserve">Tela</text></g><path fill="none" stroke="none"/><g><path fill="white" stroke="black" paint-order="fill stroke markers" d=" M 595.8544054251954 197.51145620850005 L 749.2858943657111 197.51145620850005 L 749.2858943657111 268.75807367850007 L 595.8544054251954 268.75807367850007 L 595.8544054251954 197.51145620850005 Z" stroke-miterlimit="10" stroke-width="4.222021776" stroke-dasharray=""/></g><g><g/><text fill="black" stroke="none" font-family="sans-serif" font-size="11pt" font-style="normal" font-weight="normal" text-decoration="normal" x="624.4849905936954" y="242.37043757850003" text-anchor="start" dominant-baseline="alphabetic" xml:space="preserve">Tela de Edição</text></g><path fill="none" stroke="none"/><g><path fill="white" stroke="black" paint-order="fill stroke markers" d=" M 954.140915758344 197.51145620850005 L 1096.1622484488596 197.51145620850005 L 1096.1622484488596 268.75807367850007 L 954.140915758344 268.75807367850007 L 954.140915758344 197.51145620850005 Z" stroke-miterlimit="10" stroke-width="4.222021776" stroke-dasharray=""/></g><g><g/><text fill="black" stroke="none" font-family="sans-serif" font-size="11pt" font-style="normal" font-weight="normal" text-decoration="normal" x="982.771500926844" y="242.37043757850003" text-anchor="start" dominant-baseline="alphabetic" xml:space="preserve">Autenticação</text></g><path fill="none" stroke="none"/><g><path fill="white" stroke="black" paint-order="fill stroke markers" d=" M 1417.9748584969184 197.51145620850005 L 1583.6325589852856 197.51145620850005 L 1583.6325589852856 268.75807367850007 L 1417.9748584969184 268.75807367850007 L 1417.9748584969184 197.51145620850005 Z" stroke-miterlimit="10" stroke-width="4.222021776" stroke-dasharray=""/></g><g><g/><text fill="black" stroke="none" font-family="sans-serif" font-size="11pt" font-style="normal" font-weight="normal" text-decoration="normal" x="1446.6054436654183" y="242.37043757850003" text-anchor="start" dominant-baseline="alphabetic" xml:space="preserve">Banco de Dados</text></g></g><g><path fill="white" stroke="black" paint-order="fill stroke markers" d=" M 475.98704282289464 355.8372728085001 L 502.37467892289465 355.8372728085001 L 502.37467892289465 873.0349403685001 L 475.98704282289464 873.0349403685001 L 475.98704282289464 355.8372728085001" stroke-miterlimit="10" stroke-width="2.1989696750000003" stroke-dasharray=""/><path fill="white" stroke="black" paint-order="fill stroke markers" d=" M 1011.9577640536019 577.4934160485001 L 1038.3454001536018 577.4934160485001 L 1038.3454001536018 799.1495592885001 L 1011.9577640536019 799.1495592885001 L 1011.9577640536019 577.4934160485001" stroke-miterlimit="10" stroke-width="2.1989696750000003" stroke-dasharray=""/><path fill="white" stroke="black" paint-order="fill stroke markers" d=" M 1487.609890691102 651.3787971285001 L 1513.9975267911018 651.3787971285001 L 1513.9975267911018 725.2641782085001 L 1487.609890691102 725.2641782085001 L 1487.609890691102 651.3787971285001" stroke-miterlimit="10" stroke-width="2.1989696750000003" stroke-dasharray=""/><path fill="white" stroke="black" paint-order="fill stroke markers" d=" M 475.98704282289464 1012.8894116985001 L 502.37467892289465 1012.8894116985001 L 502.37467892289465 1382.3163170985003 L 475.98704282289464 1382.3163170985003 L 475.98704282289464 1012.8894116985001" stroke-miterlimit="10" stroke-width="2.1989696750000003" stroke-dasharray=""/><path fill="white" stroke="black" paint-order="fill stroke markers" d=" M 1011.9577640536019 1086.7747927785001 L 1038.3454001536018 1086.7747927785001 L 1038.3454001536018 1308.4309360185002 L 1011.9577640536019 1308.4309360185002 L 1011.9577640536019 1086.7747927785001" stroke-miterlimit="10" stroke-width="2.1989696750000003" stroke-dasharray=""/><path fill="white" stroke="black" paint-order="fill stroke markers" d=" M 1487.609890691102 1160.6601738585 L 1513.9975267911018 1160.6601738585 L 1513.9975267911018 1234.5455549385001 L 1487.609890691102 1234.5455549385001 L 1487.609890691102 1160.6601738585" stroke-miterlimit="10" stroke-width="2.1989696750000003" stroke-dasharray=""/><path fill="white" stroke="black" paint-order="fill stroke markers" d=" M 659.3763318454533 1593.4174058985004 L 685.7639679454533 1593.4174058985004 L 685.7639679454533 3683.318185018501 L 659.3763318454533 3683.318185018501 L 659.3763318454533 1593.4174058985004" stroke-miterlimit="10" stroke-width="2.1989696750000003" stroke-dasharray=""/><path fill="white" stroke="black" paint-order="fill stroke markers" d=" M 1011.9577640536019 1812.4347855285005 L 1038.3454001536018 1812.4347855285005 L 1038.3454001536018 2142.2802367785007 L 1011.9577640536019 2142.2802367785007 L 1011.9577640536019 1812.4347855285005" stroke-miterlimit="10" stroke-width="2.1989696750000003" stroke-dasharray=""/><path fill="white" stroke="black" paint-order="fill stroke markers" d=" M 1487.609890691102 1994.5094746185005 L 1513.9975267911018 1994.5094746185005 L 1513.9975267911018 2068.3948556985006 L 1487.609890691102 2068.3948556985006 L 1487.609890691102 1994.5094746185005" stroke-miterlimit="10" stroke-width="2.1989696750000003" stroke-dasharray=""/><path fill="white" stroke="black" paint-order="fill stroke markers" d=" M 1487.609890691102 2255.7470720085007 L 1513.9975267911018 2255.7470720085007 L 1513.9975267911018 2585.592523258501 L 1487.609890691102 2585.592523258501 L 1487.609890691102 2255.7470720085007" stroke-miterlimit="10" stroke-width="2.1989696750000003" stroke-dasharray=""/><path fill="white" stroke="black" paint-order="fill stroke markers" d=" M 1011.9577640536019 2329.632453088501 L 1038.3454001536018 2329.632453088501 L 1038.3454001536018 2511.707142178501 L 1011.9577640536019 2511.707142178501 L 1011.9577640536019 2329.632453088501" stroke-miterlimit="10" stroke-width="2.1989696750000003" stroke-dasharray=""/><path fill="white" stroke="black" paint-order="fill stroke markers" d=" M 1487.609890691102 3279.5873526885007 L 1513.9975267911018 3279.5873526885007 L 1513.9975267911018 3609.432803938501 L 1487.609890691102 3609.432803938501 L 1487.609890691102 3279.5873526885007" stroke-miterlimit="10" stroke-width="2.1989696750000003" stroke-dasharray=""/><path fill="white" stroke="black" paint-order="fill stroke markers" d=" M 1011.9577640536019 3353.472733768501 L 1038.3454001536018 3353.472733768501 L 1038.3454001536018 3535.547422858501 L 1011.9577640536019 3535.547422858501 L 1011.9577640536019 3353.472733768501" stroke-miterlimit="10" stroke-width="2.1989696750000003" stroke-dasharray=""/><path fill="white" stroke="black" paint-order="fill stroke markers" d=" M 1500.803708741102 3535.547422858501 L 1527.1913448411017 3535.547422858501 L 1527.1913448411017 3535.547422858501 L 1500.803708741102 3535.547422858501 L 1500.803708741102 3535.547422858501" stroke-miterlimit="10" stroke-width="2.1989696750000003" stroke-dasharray=""/><path fill="white" stroke="black" paint-order="fill stroke markers" d=" M 659.3763318454533 3796.785020248501 L 685.7639679454533 3796.785020248501 L 685.7639679454533 3870.670401328501 L 659.3763318454533 3870.670401328501 L 659.3763318454533 3796.785020248501" stroke-miterlimit="10" stroke-width="2.1989696750000003" stroke-dasharray=""/><g><text fill="black" stroke="none" font-family="sans-serif" font-size="11pt" font-style="normal" font-weight="normal" text-decoration="normal" x="240.88167187052932" y="345.2822183685001" text-anchor="start" dominant-baseline="alphabetic" xml:space="preserve">Abre tela de cadastro</text></g><g><path fill="none" stroke="black" paint-order="fill stroke markers" d=" M 145.13199855000002 355.8372728085001 L 471.58910347289464 355.8372728085001" stroke-miterlimit="10" stroke-width="2.1989696750000003" stroke-dasharray=""/><g transform="translate(475.98704282289464,355.8372728085001) translate(-475.98704282289464,-355.8372728085001)"><path fill="black" stroke="none" paint-order="stroke fill markers" d=" M 453.99734607289463 344.84242443350007 L 475.98704282289464 355.8372728085001 L 453.99734607289463 366.8321211835001 Z"/></g></g><g><text fill="black" stroke="none" font-family="sans-serif" font-size="11pt" font-style="normal" font-weight="normal" text-decoration="normal" x="233.9525413163301" y="419.1675994485001" text-anchor="start" dominant-baseline="alphabetic" xml:space="preserve">Tela de cadastro aberta</text></g><g><path fill="none" stroke="black" paint-order="fill stroke markers" d=" M 475.98704282289464 429.7226538885001 L 149.52993790000002 429.7226538885001" stroke-miterlimit="10" stroke-width="2.1989696750000003" stroke-dasharray="10.555054440000001"/><g transform="translate(145.13199855000002,429.7226538885001) translate(-145.13199855000002,-429.7226538885001)"><path fill="black" stroke="none" paint-order="stroke fill markers" d=" M 167.12169530000003 418.7278055135001 L 145.13199855000002 429.7226538885001 L 167.12169530000003 440.7175022635001 Z"/></g></g><g><text fill="black" stroke="none" font-family="sans-serif" font-size="11pt" font-style="normal" font-weight="normal" text-decoration="normal" x="233.53736492472854" y="493.0529805285001" text-anchor="start" dominant-baseline="alphabetic" xml:space="preserve">Preenche login e senha</text></g><g><path fill="none" stroke="black" paint-order="fill stroke markers" d=" M 145.13199855000002 503.6080349685001 L 471.58910347289464 503.6080349685001" stroke-miterlimit="10" stroke-width="2.1989696750000003" stroke-dasharray=""/><g transform="translate(475.98704282289464,503.6080349685001) translate(-475.98704282289464,-503.6080349685001)"><path fill="black" stroke="none" paint-order="stroke fill markers" d=" M 453.99734607289463 492.6131865935001 L 475.98704282289464 503.6080349685001 L 453.99734607289463 514.6028833435 Z"/></g></g><g><text fill="black" stroke="none" font-family="sans-serif" font-size="11pt" font-style="normal" font-weight="normal" text-decoration="normal" x="691.6902388222327" y="566.9383616085001" text-anchor="start" dominant-baseline="alphabetic" xml:space="preserve">Valida login e senha</text></g><g><path fill="none" stroke="black" paint-order="fill stroke markers" d=" M 502.37467892289465 577.4934160485001 L 1007.5598247036019 577.4934160485001" stroke-miterlimit="10" stroke-width="2.1989696750000003" stroke-dasharray=""/><g transform="translate(1011.9577640536019,577.4934160485001) translate(-1011.9577640536019,-577.4934160485001)"><path fill="black" stroke="none" paint-order="stroke fill markers" d=" M 989.9680673036019 566.4985676735001 L 1011.9577640536019 577.4934160485001 L 989.9680673036019 588.4882644235 Z"/></g></g><g><text fill="black" stroke="none" font-family="sans-serif" font-size="11pt" font-style="normal" font-weight="normal" text-decoration="normal" x="1188.4035868896372" y="640.8237426885001" text-anchor="start" dominant-baseline="alphabetic" xml:space="preserve">Consulta login e senha</text></g><g><path fill="none" stroke="black" paint-order="fill stroke markers" d=" M 1038.3454001536018 651.3787971285001 L 1483.2119513411021 651.3787971285001" stroke-miterlimit="10" stroke-width="2.1989696750000003" stroke-dasharray=""/><g transform="translate(1487.609890691102,651.3787971285001) translate(-1487.609890691102,-651.3787971285001)"><path fill="black" stroke="none" paint-order="stroke fill markers" d=" M 1465.6201939411021 640.3839487535001 L 1487.609890691102 651.3787971285001 L 1465.6201939411021 662.3736455035 Z"/></g></g><g><text fill="black" stroke="none" font-family="sans-serif" font-size="11pt" font-style="normal" font-weight="normal" text-decoration="normal" x="1192.0685878051645" y="714.7091237685001" text-anchor="start" dominant-baseline="alphabetic" xml:space="preserve">Login e senha válidos</text></g><g><path fill="none" stroke="black" paint-order="fill stroke markers" d=" M 1487.609890691102 725.2641782085001 L 1042.7433395036016 725.2641782085001" stroke-miterlimit="10" stroke-width="2.1989696750000003" stroke-dasharray="10.555054440000001"/><g transform="translate(1038.3454001536018,725.2641782085001) translate(-1038.3454001536018,-725.2641782085001)"><path fill="black" stroke="none" paint-order="stroke fill markers" d=" M 1060.3350969036017 714.2693298335001 L 1038.3454001536018 725.2641782085001 L 1060.3350969036017 736.2590265835 Z"/></g></g><g><text fill="black" stroke="none" font-family="sans-serif" font-size="11pt" font-style="normal" font-weight="normal" text-decoration="normal" x="706.2356794960608" y="788.5945048485002" text-anchor="start" dominant-baseline="alphabetic" xml:space="preserve">Cadastro válido</text></g><g><path fill="none" stroke="black" paint-order="fill stroke markers" d=" M 1011.9577640536019 799.1495592885001 L 506.77261827289465 799.1495592885001" stroke-miterlimit="10" stroke-width="2.1989696750000003" stroke-dasharray="10.555054440000001"/><g transform="translate(502.37467892289465,799.1495592885001) translate(-502.37467892289465,-799.1495592885001)"><path fill="black" stroke="none" paint-order="stroke fill markers" d=" M 524.3643756728947 788.1547109135001 L 502.37467892289465 799.1495592885001 L 524.3643756728947 810.1444076635 Z"/></g></g><g><text fill="black" stroke="none" font-family="sans-serif" font-size="11pt" font-style="normal" font-weight="normal" text-decoration="normal" x="210.74567028361525" y="862.4798859285002" text-anchor="start" dominant-baseline="alphabetic" xml:space="preserve">Mostra mensagem de sucesso</text></g><g><path fill="none" stroke="black" paint-order="fill stroke markers" d=" M 475.98704282289464 873.0349403685001 L 149.52993790000002 873.0349403685001" stroke-miterlimit="10" stroke-width="2.1989696750000003" stroke-dasharray="10.555054440000001"/><g transform="translate(145.13199855000002,873.0349403685001) translate(-145.13199855000002,-873.0349403685001)"><path fill="black" stroke="none" paint-order="stroke fill markers" d=" M 167.12169530000003 862.0400919935001 L 145.13199855000002 873.0349403685001 L 167.12169530000003 884.0297887435 Z"/></g></g><g><text fill="black" stroke="none" font-family="sans-serif" font-size="11pt" font-style="normal" font-weight="normal" text-decoration="normal" x="233.53736492472854" y="1002.3343572585002" text-anchor="start" dominant-baseline="alphabetic" xml:space="preserve">Preenche login e senha</text></g><g><path fill="none" stroke="black" paint-order="fill stroke markers" d=" M 145.13199855000002 1012.8894116985001 L 471.58910347289464 1012.8894116985001" stroke-miterlimit="10" stroke-width="2.1989696750000003" stroke-dasharray=""/><g transform="translate(475.98704282289464,1012.8894116985001) translate(-475.98704282289464,-1012.8894116985001)"><path fill="black" stroke="none" paint-order="stroke fill markers" d=" M 453.99734607289463 1001.8945633235002 L 475.98704282289464 1012.8894116985001 L 453.99734607289463 1023.8842600735001 Z"/></g></g><g><text fill="black" stroke="none" font-family="sans-serif" font-size="11pt" font-style="normal" font-weight="normal" text-decoration="normal" x="691.6902388222327" y="1076.2197383385" text-anchor="start" dominant-baseline="alphabetic" xml:space="preserve">Valida login e senha</text></g><g><path fill="none" stroke="black" paint-order="fill stroke markers" d=" M 502.37467892289465 1086.7747927785001 L 1007.5598247036019 1086.7747927785001" stroke-miterlimit="10" stroke-width="2.1989696750000003" stroke-dasharray=""/><g transform="translate(1011.9577640536019,1086.7747927785001) translate(-1011.9577640536019,-1086.7747927785001)"><path fill="black" stroke="none" paint-order="stroke fill markers" d=" M 989.9680673036019 1075.7799444035002 L 1011.9577640536019 1086.7747927785001 L 989.9680673036019 1097.7696411535 Z"/></g></g><g><text fill="black" stroke="none" font-family="sans-serif" font-size="11pt" font-style="normal" font-weight="normal" text-decoration="normal" x="1188.4035868896372" y="1150.1051194185" text-anchor="start" dominant-baseline="alphabetic" xml:space="preserve">Consulta login e senha</text></g><g><path fill="none" stroke="black" paint-order="fill stroke markers" d=" M 1038.3454001536018 1160.6601738585 L 1483.2119513411021 1160.6601738585" stroke-miterlimit="10" stroke-width="2.1989696750000003" stroke-dasharray=""/><g transform="translate(1487.609890691102,1160.6601738585) translate(-1487.609890691102,-1160.6601738585)"><path fill="black" stroke="none" paint-order="stroke fill markers" d=" M 1465.6201939411021 1149.6653254835 L 1487.609890691102 1160.6601738585 L 1465.6201939411021 1171.6550222335 Z"/></g></g><g><text fill="black" stroke="none" font-family="sans-serif" font-size="11pt" font-style="normal" font-weight="normal" text-decoration="normal" x="1192.0685878051645" y="1223.9905004985" text-anchor="start" dominant-baseline="alphabetic" xml:space="preserve">Login e senha válidos</text></g><g><path fill="none" stroke="black" paint-order="fill stroke markers" d=" M 1487.609890691102 1234.5455549385001 L 1042.7433395036016 1234.5455549385001" stroke-miterlimit="10" stroke-width="2.1989696750000003" stroke-dasharray="10.555054440000001"/><g transform="translate(1038.3454001536018,1234.5455549385001) translate(-1038.3454001536018,-1234.5455549385001)"><path fill="black" stroke="none" paint-order="stroke fill markers" d=" M 1060.3350969036017 1223.5507065635002 L 1038.3454001536018 1234.5455549385001 L 1060.3350969036017 1245.5404033135 Z"/></g></g><g><text fill="black" stroke="none" font-family="sans-serif" font-size="11pt" font-style="normal" font-weight="normal" text-decoration="normal" x="718.0431212074866" y="1297.8758815785002" text-anchor="start" dominant-baseline="alphabetic" xml:space="preserve">Login válido</text></g><g><path fill="none" stroke="black" paint-order="fill stroke markers" d=" M 1011.9577640536019 1308.4309360185002 L 506.77261827289465 1308.4309360185002" stroke-miterlimit="10" stroke-width="2.1989696750000003" stroke-dasharray="10.555054440000001"/><g transform="translate(502.37467892289465,1308.4309360185002) translate(-502.37467892289465,-1308.4309360185002)"><path fill="black" stroke="none" paint-order="stroke fill markers" d=" M 524.3643756728947 1297.4360876435003 L 502.37467892289465 1308.4309360185002 L 524.3643756728947 1319.4257843935002 Z"/></g></g><g><text fill="black" stroke="none" font-family="sans-serif" font-size="11pt" font-style="normal" font-weight="normal" text-decoration="normal" x="201.35413738566604" y="1371.7612626585003" text-anchor="start" dominant-baseline="alphabetic" xml:space="preserve">Redireciona para página principal</text></g><g><path fill="none" stroke="black" paint-order="fill stroke markers" d=" M 475.98704282289464 1382.3163170985003 L 149.52993790000002 1382.3163170985003" stroke-miterlimit="10" stroke-width="2.1989696750000003" stroke-dasharray="10.555054440000001"/><g transform="translate(145.13199855000002,1382.3163170985003) translate(-145.13199855000002,-1382.3163170985003)"><path fill="black" stroke="none" paint-order="stroke fill markers" d=" M 167.12169530000003 1371.3214687235004 L 145.13199855000002 1382.3163170985003 L 167.12169530000003 1393.3111654735003 Z"/></g></g><g><text fill="black" stroke="none" font-family="sans-serif" font-size="11pt" font-style="normal" font-weight="normal" text-decoration="normal" x="280.436027075168" y="1582.8623514585004" text-anchor="start" dominant-baseline="alphabetic" xml:space="preserve">Comanda a criação de uma Checklist</text></g><g><path fill="none" stroke="black" paint-order="fill stroke markers" d=" M 145.13199855000002 1593.4174058985004 L 654.9783924954532 1593.4174058985004" stroke-miterlimit="10" stroke-width="2.1989696750000003" stroke-dasharray=""/><g transform="translate(659.3763318454533,1593.4174058985004) translate(-659.3763318454533,-1593.4174058985004)"><path fill="black" stroke="none" paint-order="stroke fill markers" d=" M 637.3866350954532 1582.4225575235005 L 659.3763318454533 1593.4174058985004 L 637.3866350954532 1604.4122542735004 Z"/></g></g><g><text fill="black" stroke="none" font-family="sans-serif" font-size="11pt" font-style="normal" font-weight="normal" text-decoration="normal" x="282.4653697265352" y="1727.9943500085003" text-anchor="start" dominant-baseline="alphabetic" xml:space="preserve">Comanda a edição de uma Checklist</text></g><g><path fill="none" stroke="black" paint-order="fill stroke markers" d=" M 145.13199855000002 1738.5494044485004 L 654.9783924954532 1738.5494044485004" stroke-miterlimit="10" stroke-width="2.1989696750000003" stroke-dasharray=""/><g transform="translate(659.3763318454533,1738.5494044485004) translate(-659.3763318454533,-1738.5494044485004)"><path fill="black" stroke="none" paint-order="stroke fill markers" d=" M 637.3866350954532 1727.5545560735004 L 659.3763318454533 1738.5494044485004 L 637.3866350954532 1749.5442528235003 Z"/></g></g><g><text fill="black" stroke="none" font-family="sans-serif" font-size="11pt" font-style="normal" font-weight="normal" text-decoration="normal" x="752.7084459555822" y="1801.8797310885004" text-anchor="start" dominant-baseline="alphabetic" xml:space="preserve">Consultar autoria da checklist</text></g><g><path fill="none" stroke="black" paint-order="fill stroke markers" d=" M 685.7639679454533 1812.4347855285005 L 1007.5598247036019 1812.4347855285005" stroke-miterlimit="10" stroke-width="2.1989696750000003" stroke-dasharray=""/><g transform="translate(1011.9577640536019,1812.4347855285005) translate(-1011.9577640536019,-1812.4347855285005)"><path fill="black" stroke="none" paint-order="stroke fill markers" d=" M 989.9680673036019 1801.4399371535005 L 1011.9577640536019 1812.4347855285005 L 989.9680673036019 1823.4296339035004 Z"/></g></g><g><text fill="black" stroke="none" font-family="sans-serif" font-size="11pt" font-style="normal" font-weight="normal" text-decoration="normal" x="1073.5289149536015" y="1875.7651121685005" text-anchor="start" dominant-baseline="alphabetic" xml:space="preserve">Valida usuário</text></g><g><path fill="none" stroke="black" paint-order="fill stroke markers" d=" M 1038.3454001536018 1886.3201666085006 L 1143.8959445536018 1886.3201666085006 L 1143.8959445536018 1920.6240935385006 L 1042.7433395036016 1920.6240935385006" stroke-miterlimit="10" stroke-width="2.1989696750000003" stroke-dasharray=""/><g transform="translate(1038.3454001536018,1920.6240935385006) translate(-1038.3454001536018,-1920.6240935385006)"><path fill="black" stroke="none" paint-order="stroke fill markers" d=" M 1060.3350969036017 1909.6292451635006 L 1038.3454001536018 1920.6240935385006 L 1060.3350969036017 1931.6189419135005 Z"/></g></g><g><text fill="black" stroke="none" font-family="sans-serif" font-size="11pt" font-style="normal" font-weight="normal" text-decoration="normal" x="1073.528914953602" y="1983.9544201785004" text-anchor="start" dominant-baseline="alphabetic" xml:space="preserve">Consultar autor da checklist e comparar com usuário atual</text></g><g><path fill="none" stroke="black" paint-order="fill stroke markers" d=" M 1038.3454001536018 1994.5094746185005 L 1483.2119513411021 1994.5094746185005" stroke-miterlimit="10" stroke-width="2.1989696750000003" stroke-dasharray=""/><g transform="translate(1487.609890691102,1994.5094746185005) translate(-1487.609890691102,-1994.5094746185005)"><path fill="black" stroke="none" paint-order="stroke fill markers" d=" M 1465.6201939411021 1983.5146262435005 L 1487.609890691102 1994.5094746185005 L 1465.6201939411021 2005.5043229935004 Z"/></g></g><g><text fill="black" stroke="none" font-family="sans-serif" font-size="11pt" font-style="normal" font-weight="normal" text-decoration="normal" x="1220.6083064330942" y="2057.8398012585003" text-anchor="start" dominant-baseline="alphabetic" xml:space="preserve">Autor correto</text></g><g><path fill="none" stroke="black" paint-order="fill stroke markers" d=" M 1487.609890691102 2068.3948556985006 L 1042.7433395036016 2068.3948556985006" stroke-miterlimit="10" stroke-width="2.1989696750000003" stroke-dasharray="10.555054440000001"/><g transform="translate(1038.3454001536018,2068.3948556985006) translate(-1038.3454001536018,-2068.3948556985006)"><path fill="black" stroke="none" paint-order="stroke fill markers" d=" M 1060.3350969036017 2057.4000073235006 L 1038.3454001536018 2068.3948556985006 L 1060.3350969036017 2079.3897040735005 Z"/></g></g><g><text fill="black" stroke="none" font-family="sans-serif" font-size="11pt" font-style="normal" font-weight="normal" text-decoration="normal" x="810.1529421103673" y="2131.7251823385004" text-anchor="start" dominant-baseline="alphabetic" xml:space="preserve">Autor válido</text></g><g><path fill="none" stroke="black" paint-order="fill stroke markers" d=" M 1011.9577640536019 2142.2802367785007 L 690.1619072954533 2142.2802367785007" stroke-miterlimit="10" stroke-width="2.1989696750000003" stroke-dasharray="10.555054440000001"/><g transform="translate(685.7639679454533,2142.2802367785007) translate(-685.7639679454533,-2142.2802367785007)"><path fill="black" stroke="none" paint-order="stroke fill markers" d=" M 707.7536646954533 2131.2853884035007 L 685.7639679454533 2142.2802367785007 L 707.7536646954533 2153.2750851535006 Z"/></g></g><g><text fill="black" stroke="none" font-family="sans-serif" font-size="11pt" font-style="normal" font-weight="normal" text-decoration="normal" x="1038.2080779999183" y="2245.1920175685004" text-anchor="start" dominant-baseline="alphabetic" xml:space="preserve">Salva checklist</text></g><g><path fill="none" stroke="black" paint-order="fill stroke markers" d=" M 685.7639679454533 2255.7470720085007 L 1483.2119513411021 2255.7470720085007" stroke-miterlimit="10" stroke-width="2.1989696750000003" stroke-dasharray=""/><g transform="translate(1487.609890691102,2255.7470720085007) translate(-1487.609890691102,-2255.7470720085007)"><path fill="black" stroke="none" paint-order="stroke fill markers" d=" M 1465.6201939411021 2244.7522236335008 L 1487.609890691102 2255.7470720085007 L 1465.6201939411021 2266.7419203835007 Z"/></g></g><g><text fill="black" stroke="none" font-family="sans-serif" font-size="11pt" font-style="normal" font-weight="normal" text-decoration="normal" x="1207.1580577148325" y="2319.0773986485005" text-anchor="start" dominant-baseline="alphabetic" xml:space="preserve">Consultar autoria</text></g><g><path fill="none" stroke="black" paint-order="fill stroke markers" d=" M 1487.609890691102 2329.632453088501 L 1042.7433395036016 2329.632453088501" stroke-miterlimit="10" stroke-width="2.1989696750000003" stroke-dasharray=""/><g transform="translate(1038.3454001536018,2329.632453088501) translate(-1038.3454001536018,-2329.632453088501)"><path fill="black" stroke="none" paint-order="stroke fill markers" d=" M 1060.3350969036017 2318.637604713501 L 1038.3454001536018 2329.632453088501 L 1060.3350969036017 2340.6273014635008 Z"/></g></g><g><text fill="black" stroke="none" font-family="sans-serif" font-size="11pt" font-style="normal" font-weight="normal" text-decoration="normal" x="1073.5289149536015" y="2392.9627797285007" text-anchor="start" dominant-baseline="alphabetic" xml:space="preserve">Valida usuário</text></g><g><path fill="none" stroke="black" paint-order="fill stroke markers" d=" M 1038.3454001536018 2403.5178341685005 L 1143.8959445536018 2403.5178341685005 L 1143.8959445536018 2437.8217610985007 L 1042.7433395036016 2437.8217610985007" stroke-miterlimit="10" stroke-width="2.1989696750000003" stroke-dasharray=""/><g transform="translate(1038.3454001536018,2437.8217610985007) translate(-1038.3454001536018,-2437.8217610985007)"><path fill="black" stroke="none" paint-order="stroke fill markers" d=" M 1060.3350969036017 2426.8269127235008 L 1038.3454001536018 2437.8217610985007 L 1060.3350969036017 2448.8166094735006 Z"/></g></g><g><text fill="black" stroke="none" font-family="sans-serif" font-size="11pt" font-style="normal" font-weight="normal" text-decoration="normal" x="1216.531714941395" y="2501.1520877385005" text-anchor="start" dominant-baseline="alphabetic" xml:space="preserve">Usuário válido</text></g><g><path fill="none" stroke="black" paint-order="fill stroke markers" d=" M 1038.3454001536018 2511.707142178501 L 1483.2119513411021 2511.707142178501" stroke-miterlimit="10" stroke-width="2.1989696750000003" stroke-dasharray=""/><g transform="translate(1487.609890691102,2511.707142178501) translate(-1487.609890691102,-2511.707142178501)"><path fill="black" stroke="none" paint-order="stroke fill markers" d=" M 1465.6201939411021 2500.712293803501 L 1487.609890691102 2511.707142178501 L 1465.6201939411021 2522.7019905535008 Z"/></g></g><g><text fill="black" stroke="none" font-family="sans-serif" font-size="11pt" font-style="normal" font-weight="normal" text-decoration="normal" x="1037.8036361664222" y="2575.0374688185007" text-anchor="start" dominant-baseline="alphabetic" xml:space="preserve">Checklist salva</text></g><g><path fill="none" stroke="black" paint-order="fill stroke markers" d=" M 1487.609890691102 2585.592523258501 L 690.1619072954533 2585.592523258501" stroke-miterlimit="10" stroke-width="2.1989696750000003" stroke-dasharray="10.555054440000001"/><g transform="translate(685.7639679454533,2585.592523258501) translate(-685.7639679454533,-2585.592523258501)"><path fill="black" stroke="none" paint-order="stroke fill markers" d=" M 707.7536646954533 2574.597674883501 L 685.7639679454533 2585.592523258501 L 707.7536646954533 2596.587371633501 Z"/></g></g><g><text fill="black" stroke="none" font-family="sans-serif" font-size="11pt" font-style="normal" font-weight="normal" text-decoration="normal" x="359.4803843749727" y="2648.9228498985008" text-anchor="start" dominant-baseline="alphabetic" xml:space="preserve">Mostra editor</text></g><g><path fill="none" stroke="black" paint-order="fill stroke markers" d=" M 659.3763318454533 2659.477904338501 L 149.52993790000002 2659.477904338501" stroke-miterlimit="10" stroke-width="2.1989696750000003" stroke-dasharray="10.555054440000001"/><g transform="translate(145.13199855000002,2659.477904338501) translate(-145.13199855000002,-2659.477904338501)"><path fill="black" stroke="none" paint-order="stroke fill markers" d=" M 167.12169530000003 2648.483055963501 L 145.13199855000002 2659.477904338501 L 167.12169530000003 2670.472752713501 Z"/></g></g><g><text fill="black" stroke="none" font-family="sans-serif" font-size="11pt" font-style="normal" font-weight="normal" text-decoration="normal" x="367.62998917233597" y="2865.3014659185005" text-anchor="start" dominant-baseline="alphabetic" xml:space="preserve">Cria check</text></g><g><path fill="none" stroke="black" paint-order="fill stroke markers" d=" M 145.13199855000002 2875.856520358501 L 654.9783924954532 2875.856520358501" stroke-miterlimit="10" stroke-width="2.1989696750000003" stroke-dasharray=""/><g transform="translate(659.3763318454533,2875.856520358501) translate(-659.3763318454533,-2875.856520358501)"><path fill="black" stroke="none" paint-order="stroke fill markers" d=" M 637.3866350954532 2864.861671983501 L 659.3763318454533 2875.856520358501 L 637.3866350954532 2886.8513687335007 Z"/></g></g><g><text fill="black" stroke="none" font-family="sans-serif" font-size="11pt" font-style="normal" font-weight="normal" text-decoration="normal" x="337.8805384887422" y="3010.4334644685005" text-anchor="start" dominant-baseline="alphabetic" xml:space="preserve">Deleta check criada</text></g><g><path fill="none" stroke="black" paint-order="fill stroke markers" d=" M 145.13199855000002 3020.9885189085007 L 654.9783924954532 3020.9885189085007" stroke-miterlimit="10" stroke-width="2.1989696750000003" stroke-dasharray=""/><g transform="translate(659.3763318454533,3020.9885189085007) translate(-659.3763318454533,-3020.9885189085007)"><path fill="black" stroke="none" paint-order="stroke fill markers" d=" M 637.3866350954532 3009.993670533501 L 659.3763318454533 3020.9885189085007 L 637.3866350954532 3031.9833672835007 Z"/></g></g><g><text fill="black" stroke="none" font-family="sans-serif" font-size="11pt" font-style="normal" font-weight="normal" text-decoration="normal" x="342.36157181393753" y="3155.5654630185004" text-anchor="start" dominant-baseline="alphabetic" xml:space="preserve">Edita check criada</text></g><g><path fill="none" stroke="black" paint-order="fill stroke markers" d=" M 145.13199855000002 3166.1205174585007 L 654.9783924954532 3166.1205174585007" stroke-miterlimit="10" stroke-width="2.1989696750000003" stroke-dasharray=""/><g transform="translate(659.3763318454533,3166.1205174585007) translate(-659.3763318454533,-3166.1205174585007)"><path fill="black" stroke="none" paint-order="stroke fill markers" d=" M 637.3866350954532 3155.1256690835007 L 659.3763318454533 3166.1205174585007 L 637.3866350954532 3177.1153658335006 Z"/></g></g><g><text fill="black" stroke="none" font-family="sans-serif" font-size="11pt" font-style="normal" font-weight="normal" text-decoration="normal" x="1019.0563293426917" y="3269.0322982485004" text-anchor="start" dominant-baseline="alphabetic" xml:space="preserve">Publicar modificação</text></g><g><path fill="none" stroke="black" paint-order="fill stroke markers" d=" M 685.7639679454533 3279.5873526885007 L 1483.2119513411021 3279.5873526885007" stroke-miterlimit="10" stroke-width="2.1989696750000003" stroke-dasharray=""/><g transform="translate(1487.609890691102,3279.5873526885007) translate(-1487.609890691102,-3279.5873526885007)"><path fill="black" stroke="none" paint-order="stroke fill markers" d=" M 1465.6201939411021 3268.5925043135007 L 1487.609890691102 3279.5873526885007 L 1465.6201939411021 3290.5822010635006 Z"/></g></g><g><text fill="black" stroke="none" font-family="sans-serif" font-size="11pt" font-style="normal" font-weight="normal" text-decoration="normal" x="1209.598998571766" y="3342.9176793285005" text-anchor="start" dominant-baseline="alphabetic" xml:space="preserve">Consulta autoria</text></g><g><path fill="none" stroke="black" paint-order="fill stroke markers" d=" M 1487.609890691102 3353.472733768501 L 1042.7433395036016 3353.472733768501" stroke-miterlimit="10" stroke-width="2.1989696750000003" stroke-dasharray=""/><g transform="translate(1038.3454001536018,3353.472733768501) translate(-1038.3454001536018,-3353.472733768501)"><path fill="black" stroke="none" paint-order="stroke fill markers" d=" M 1060.3350969036017 3342.477885393501 L 1038.3454001536018 3353.472733768501 L 1060.3350969036017 3364.4675821435007 Z"/></g></g><g><text fill="black" stroke="none" font-family="sans-serif" font-size="11pt" font-style="normal" font-weight="normal" text-decoration="normal" x="1073.5289149536015" y="3416.8030604085006" text-anchor="start" dominant-baseline="alphabetic" xml:space="preserve">Validar usuário</text></g><g><path fill="none" stroke="black" paint-order="fill stroke markers" d=" M 1038.3454001536018 3427.3581148485005 L 1143.8959445536018 3427.3581148485005 L 1143.8959445536018 3461.6620417785007 L 1042.7433395036016 3461.6620417785007" stroke-miterlimit="10" stroke-width="2.1989696750000003" stroke-dasharray=""/><g transform="translate(1038.3454001536018,3461.6620417785007) translate(-1038.3454001536018,-3461.6620417785007)"><path fill="black" stroke="none" paint-order="stroke fill markers" d=" M 1060.3350969036017 3450.6671934035007 L 1038.3454001536018 3461.6620417785007 L 1060.3350969036017 3472.6568901535006 Z"/></g></g><g><text fill="black" stroke="none" font-family="sans-serif" font-size="11pt" font-style="normal" font-weight="normal" text-decoration="normal" x="1230.8666305581917" y="3524.9923684185005" text-anchor="start" dominant-baseline="alphabetic" xml:space="preserve">Autor válido</text></g><g><path fill="none" stroke="black" paint-order="fill stroke markers" d=" M 1038.3454001536018 3535.547422858501 L 1496.405769391102 3535.547422858501" stroke-miterlimit="10" stroke-width="2.1989696750000003" stroke-dasharray=""/><g transform="translate(1500.803708741102,3535.547422858501) translate(-1500.803708741102,-3535.547422858501)"><path fill="black" stroke="none" paint-order="stroke fill markers" d=" M 1478.814011991102 3524.552574483501 L 1500.803708741102 3535.547422858501 L 1478.814011991102 3546.5422712335007 Z"/></g></g><g><text fill="black" stroke="none" font-family="sans-serif" font-size="11pt" font-style="normal" font-weight="normal" text-decoration="normal" x="1028.4264007538245" y="3598.8777494985006" text-anchor="start" dominant-baseline="alphabetic" xml:space="preserve">Modificação salva</text></g><g><path fill="none" stroke="black" paint-order="fill stroke markers" d=" M 1487.609890691102 3609.432803938501 L 690.1619072954533 3609.432803938501" stroke-miterlimit="10" stroke-width="2.1989696750000003" stroke-dasharray="10.555054440000001"/><g transform="translate(685.7639679454533,3609.432803938501) translate(-685.7639679454533,-3609.432803938501)"><path fill="black" stroke="none" paint-order="stroke fill markers" d=" M 707.7536646954533 3598.437955563501 L 685.7639679454533 3609.432803938501 L 707.7536646954533 3620.427652313501 Z"/></g></g><g><text fill="black" stroke="none" font-family="sans-serif" font-size="11pt" font-style="normal" font-weight="normal" text-decoration="normal" x="329.3372416747774" y="3672.7631305785007" text-anchor="start" dominant-baseline="alphabetic" xml:space="preserve">Mostra checks criadas</text></g><g><path fill="none" stroke="black" paint-order="fill stroke markers" d=" M 659.3763318454533 3683.318185018501 L 149.52993790000002 3683.318185018501" stroke-miterlimit="10" stroke-width="2.1989696750000003" stroke-dasharray="10.555054440000001"/><g transform="translate(145.13199855000002,3683.318185018501) translate(-145.13199855000002,-3683.318185018501)"><path fill="black" stroke="none" paint-order="stroke fill markers" d=" M 167.12169530000003 3672.323336643501 L 145.13199855000002 3683.318185018501 L 167.12169530000003 3694.313033393501 Z"/></g></g><g><text fill="black" stroke="none" font-family="sans-serif" font-size="11pt" font-style="normal" font-weight="normal" text-decoration="normal" x="332.99865677487503" y="3786.2299658085008" text-anchor="start" dominant-baseline="alphabetic" xml:space="preserve">Encerrar modificação</text></g><g><path fill="none" stroke="black" paint-order="fill stroke markers" d=" M 145.13199855000002 3796.785020248501 L 654.9783924954532 3796.785020248501" stroke-miterlimit="10" stroke-width="2.1989696750000003" stroke-dasharray=""/><g transform="translate(659.3763318454533,3796.785020248501) translate(-659.3763318454533,-3796.785020248501)"><path fill="black" stroke="none" paint-order="stroke fill markers" d=" M 637.3866350954532 3785.790171873501 L 659.3763318454533 3796.785020248501 L 637.3866350954532 3807.779868623501 Z"/></g></g><g><text fill="black" stroke="none" font-family="sans-serif" font-size="11pt" font-style="normal" font-weight="normal" text-decoration="normal" x="294.6880107177461" y="3860.115346888501" text-anchor="start" dominant-baseline="alphabetic" xml:space="preserve">Redirecionar para a tela principal</text></g><g><path fill="none" stroke="black" paint-order="fill stroke markers" d=" M 659.3763318454533 3870.670401328501 L 149.52993790000002 3870.670401328501" stroke-miterlimit="10" stroke-width="2.1989696750000003" stroke-dasharray=""/><g transform="translate(145.13199855000002,3870.670401328501) translate(-145.13199855000002,-3870.670401328501)"><path fill="black" stroke="none" paint-order="stroke fill markers" d=" M 167.12169530000003 3859.675552953501 L 145.13199855000002 3870.670401328501 L 167.12169530000003 3881.665249703501 Z"/></g></g><g><g/><path fill="none" stroke="black" paint-order="fill stroke markers" d=" M 52.77527220000002 1487.8668614985004 L 1593.1604350911018 1487.8668614985004 L 1593.1604350911018 2181.8616909285006 L 52.77527220000002 2181.8616909285006 L 52.77527220000002 1487.8668614985004 Z" stroke-miterlimit="10" stroke-width="3.7696623000000002" stroke-dasharray=""/><path fill="white" stroke="black" paint-order="fill stroke markers" d=" M 52.77527220000002 1487.8668614985004 L 52.77527220000002 1519.5320248185003 L 119.23934139707033 1519.5320248185003 L 135.07192305707034 1503.6994431585003 L 135.07192305707034 1487.8668614985004 L 52.77527220000002 1487.8668614985004" stroke-miterlimit="10" stroke-width="3.7696623000000002" stroke-dasharray=""/><text fill="black" stroke="none" font-family="sans-serif" font-size="8.8pt" font-style="normal" font-weight="bold" text-decoration="normal" x="79.16290830000003" y="1508.9769703785003" text-anchor="start" dominant-baseline="alphabetic" xml:space="preserve">alt</text><text fill="black" stroke="none" font-family="sans-serif" font-size="8.8pt" font-style="normal" font-weight="bold" text-decoration="normal" x="161.45955915707034" y="1508.9769703785003" text-anchor="start" dominant-baseline="alphabetic" xml:space="preserve">[Criar uma nova checklist]</text><g><path fill="none" stroke="black" paint-order="fill stroke markers" d=" M 52.77527220000002 1632.9988600485005 L 1593.1604350911018 1632.9988600485005" stroke-miterlimit="10" stroke-width="3.7696623000000002" stroke-dasharray="6.596909025"/></g><g/><text fill="black" stroke="none" font-family="sans-serif" font-size="8.8pt" font-style="normal" font-weight="bold" text-decoration="normal" x="161.45955915707034" y="1654.1089689285004" text-anchor="start" dominant-baseline="alphabetic" xml:space="preserve">[Editar uma checklist existente]</text></g><g/><g><g/><path fill="none" stroke="black" paint-order="fill stroke markers" d=" M 26.38763610000001 2699.059358488501 L 1593.1604350911018 2699.059358488501 L 1593.1604350911018 3722.899639168501 L 26.38763610000001 3722.899639168501 L 26.38763610000001 2699.059358488501 Z" stroke-miterlimit="10" stroke-width="3.7696623000000002" stroke-dasharray=""/><path fill="white" stroke="black" paint-order="fill stroke markers" d=" M 26.38763610000001 2699.059358488501 L 26.38763610000001 2730.724521808501 L 103.91730283125001 2730.724521808501 L 119.74988449125001 2714.891940148501 L 119.74988449125001 2699.059358488501 L 26.38763610000001 2699.059358488501" stroke-miterlimit="10" stroke-width="3.7696623000000002" stroke-dasharray=""/><text fill="black" stroke="none" font-family="sans-serif" font-size="8.8pt" font-style="normal" font-weight="bold" text-decoration="normal" x="52.77527220000001" y="2720.169467368501" text-anchor="start" dominant-baseline="alphabetic" xml:space="preserve">loop</text><text fill="black" stroke="none" font-family="sans-serif" font-size="8.8pt" font-style="normal" font-weight="bold" text-decoration="normal" x="146.13752059125002" y="2720.169467368501" text-anchor="start" dominant-baseline="alphabetic" xml:space="preserve">[Loop de edição]</text></g><g><g/><path fill="none" stroke="black" paint-order="fill stroke markers" d=" M 52.77527220000002 2770.3059759585008 L 751.7330581954533 2770.3059759585008 L 751.7330581954533 3205.7019716085006 L 52.77527220000002 3205.7019716085006 L 52.77527220000002 2770.3059759585008 Z" stroke-miterlimit="10" stroke-width="3.7696623000000002" stroke-dasharray=""/><path fill="white" stroke="black" paint-order="fill stroke markers" d=" M 52.77527220000002 2770.3059759585008 L 52.77527220000002 2801.9711392785007 L 119.23934139707033 2801.9711392785007 L 135.07192305707034 2786.1385576185007 L 135.07192305707034 2770.3059759585008 L 52.77527220000002 2770.3059759585008" stroke-miterlimit="10" stroke-width="3.7696623000000002" stroke-dasharray=""/><text fill="black" stroke="none" font-family="sans-serif" font-size="8.8pt" font-style="normal" font-weight="bold" text-decoration="normal" x="79.16290830000003" y="2791.416084838501" text-anchor="start" dominant-baseline="alphabetic" xml:space="preserve">alt</text><text fill="black" stroke="none" font-family="sans-serif" font-size="8.8pt" font-style="normal" font-weight="bold" text-decoration="normal" x="161.45955915707034" y="2791.416084838501" text-anchor="start" dominant-baseline="alphabetic" xml:space="preserve">[Opções de edição]</text><g><path fill="none" stroke="black" paint-order="fill stroke markers" d=" M 52.77527220000002 2915.4379745085007 L 751.7330581954533 2915.4379745085007" stroke-miterlimit="10" stroke-width="3.7696623000000002" stroke-dasharray="6.596909025"/></g><g><path fill="none" stroke="black" paint-order="fill stroke markers" d=" M 52.77527220000002 3060.5699730585006 L 751.7330581954533 3060.5699730585006" stroke-miterlimit="10" stroke-width="3.7696623000000002" stroke-dasharray="6.596909025"/></g></g><g/><g/></g><g/><g/><g/><g/><g/></g></svg>